<?xml version="1.0" encoding="utf-8"?>
<!-- Generator: Adobe Illustrator 24.2.3, SVG Export Plug-In . SVG Version: 6.00 Build 0)  -->
<svg version="1.1" id="Layer_1" xmlns="http://www.w3.org/2000/svg" xmlns:xlink="http://www.w3.org/1999/xlink" x="0px" y="0px"
	 viewBox="0 0 72 72" style="enable-background:new 0 0 72 72;" xml:space="preserve">
<style type="text/css">
	.st0{fill-rule:evenodd;clip-rule:evenodd;fill:#1D1D1B;}
</style>
<path class="st0" d="M62,62H51.3V43.8c0-5-1.9-7.8-5.8-7.8c-4.3,0-6.5,2.9-6.5,7.8V62H28.6V27.3h10.3V32c0,0,3.1-5.7,10.5-5.7
	S62,30.8,62,40.1V62z M16.3,22.8c-3.5,0-6.3-2.9-6.3-6.4s2.8-6.4,6.3-6.4s6.3,2.9,6.3,6.4S19.9,22.8,16.3,22.8z M11,62h10.7V27.3H11
	V62z"/>
</svg>
