<svg xmlns:xlink="http://www.w3.org/1999/xlink" width="30" height="30" viewBox="0 0 30 30" fill="none" xmlns="http://www.w3.org/2000/svg">
<path d="M7.5 12.5V10C7.5 5.8625 8.75 2.5 15 2.5C21.25 2.5 22.5 5.8625 22.5 10V12.5M15 23.125C15.8288 23.125 16.6237 22.7958 17.2097 22.2097C17.7958 21.6237 18.125 20.8288 18.125 20C18.125 19.1712 17.7958 18.3763 17.2097 17.7903C16.6237 17.2042 15.8288 16.875 15 16.875C14.1712 16.875 13.3763 17.2042 12.7903 17.7903C12.2042 18.3763 11.875 19.1712 11.875 20C11.875 20.8288 12.2042 21.6237 12.7903 22.2097C13.3763 22.7958 14.1712 23.125 15 23.125Z" stroke="#FF335D" stroke-width="2.5" stroke-linecap="round" stroke-linejoin="round"/>
<path d="M21.25 27.5H8.75C3.75 27.5 2.5 26.25 2.5 21.25V18.75C2.5 13.75 3.75 12.5 8.75 12.5H21.25C26.25 12.5 27.5 13.75 27.5 18.75V21.25C27.5 26.25 26.25 27.5 21.25 27.5Z" stroke="#FF335D" stroke-width="2.5" stroke-linecap="round" stroke-linejoin="round"/>
</svg>