<?xml version="1.0" standalone="no"?>
<!DOCTYPE svg PUBLIC "-//W3C//DTD SVG 20010904//EN"
 "http://www.w3.org/TR/2001/REC-SVG-20010904/DTD/svg10.dtd">
<svg version="1.0" xmlns="http://www.w3.org/2000/svg"
 width="900.000000pt" height="1164.000000pt" viewBox="0 0 900.000000 1164.000000"
 preserveAspectRatio="xMidYMid meet">
<metadata>
Created by potrace 1.10, written by Peter Selinger 2001-2011
</metadata>
<g transform="translate(0.000000,1164.000000) scale(0.100000,-0.100000)"
fill="#000000" stroke="none">
<path d="M4374 11356 c-3 -8 6 -30 20 -49 51 -66 72 -157 44 -185 -20 -20
-116 -15 -155 9 -55 34 -61 25 -58 -96 2 -59 5 -108 8 -111 2 -2 19 6 38 19
19 12 53 28 75 35 91 27 111 11 94 -75 -7 -32 -22 -75 -34 -95 -13 -24 -17
-40 -11 -46 6 -4 56 -6 113 -4 l102 4 0 28 c0 16 -4 31 -9 34 -12 8 -41 99
-41 130 0 16 7 27 20 31 27 9 131 -13 152 -32 29 -26 39 -7 32 62 -4 38 -2 76
4 95 15 40 -7 51 -51 25 -21 -13 -52 -19 -96 -19 -56 -1 -66 2 -69 17 -4 22
20 103 50 165 26 55 16 69 -37 52 -27 -9 -48 -9 -78 -1 -88 22 -107 23 -113 7z"/>
<path d="M4917 11233 c-4 -3 -7 -43 -7 -87 0 -45 -7 -119 -16 -166 -8 -47 -22
-121 -30 -165 -8 -44 -21 -109 -28 -144 -25 -115 -7 -118 112 -17 81 69 216
166 229 166 4 0 14 6 22 14 9 7 53 28 99 47 45 18 82 36 82 40 0 8 -139 99
-150 99 -4 0 -21 -20 -39 -44 -67 -94 -222 -229 -241 -210 -21 21 46 244 95
316 40 58 43 50 -37 100 -23 15 -52 34 -64 43 -11 8 -24 12 -27 8z"/>
<path d="M3935 11096 c-22 -26 -146 -96 -169 -96 -8 0 -31 -19 -51 -42 l-37
-43 4 -95 c3 -82 8 -104 35 -160 64 -134 154 -205 247 -197 77 7 122 28 184
90 34 34 66 57 79 57 26 0 53 10 53 19 0 4 -30 39 -66 77 -81 84 -136 170
-185 289 -57 140 -59 142 -94 101z m-58 -148 c56 -24 103 -68 103 -97 0 -42
-73 -101 -125 -101 -24 0 -56 65 -58 120 -2 44 2 55 22 71 28 23 23 22 58 7z
m172 -207 c10 -6 23 -33 31 -66 12 -49 11 -60 -3 -90 -13 -28 -22 -35 -45 -35
-33 0 -103 47 -128 85 -16 25 -16 27 7 52 21 22 89 60 112 62 5 1 16 -3 26 -8z"/>
<path d="M5376 10853 c-53 -151 -166 -302 -276 -373 -28 -18 -50 -39 -50 -48
0 -19 108 -122 127 -122 16 0 33 40 33 77 0 37 27 89 91 173 111 146 179 186
244 144 32 -21 41 -70 22 -115 -8 -20 -52 -69 -102 -115 -48 -43 -98 -96 -111
-117 -45 -69 -42 -207 4 -207 16 0 20 9 24 49 6 59 26 87 112 151 110 84 166
167 166 247 0 66 -28 107 -125 186 -44 35 -91 76 -104 91 -14 14 -28 26 -31
26 -4 0 -15 -21 -24 -47z"/>
<path d="M3470 10773 c-36 -25 -67 -60 -107 -121 -19 -29 -53 -67 -74 -86 -40
-34 -41 -46 -3 -46 40 0 53 -11 59 -48 8 -49 39 -113 94 -195 94 -141 120
-182 120 -200 1 -23 27 -33 46 -17 26 21 19 99 -15 165 -39 76 -39 117 -1 156
54 53 91 36 155 -70 l37 -60 61 42 c68 47 84 66 75 91 -4 11 -19 16 -47 16
-54 0 -112 34 -190 111 -94 93 -140 172 -140 240 0 34 -3 39 -23 39 -12 0 -34
-8 -47 -17z m74 -234 c25 -22 46 -46 46 -53 0 -24 -47 -58 -76 -54 -34 4 -74
65 -74 116 0 29 3 32 29 32 19 0 43 -13 75 -41z"/>
<path d="M5757 10543 c-4 -3 -7 -15 -7 -25 0 -19 -19 -56 -65 -128 -31 -49
-203 -226 -247 -254 -16 -10 -28 -24 -28 -32 0 -16 118 -136 124 -125 3 3 21
38 41 76 87 168 245 335 316 335 37 0 48 -36 26 -88 -8 -20 -29 -75 -47 -122
-38 -103 -117 -295 -135 -330 -20 -40 -28 -87 -15 -95 7 -4 42 5 78 20 168 68
242 97 332 130 19 7 64 21 100 30 36 10 72 19 80 22 11 3 1 16 -32 46 -25 23
-54 54 -63 70 -20 32 -41 35 -50 7 -3 -11 -24 -35 -46 -53 -42 -36 -210 -127
-234 -127 -22 0 -18 26 15 97 17 34 30 67 30 73 0 16 39 85 61 109 12 13 37
30 56 37 33 14 33 15 16 39 -10 13 -21 25 -25 25 -4 0 -23 27 -43 60 -20 33
-43 60 -51 60 -9 0 -48 34 -88 75 -70 72 -85 83 -99 68z"/>
<path d="M3104 10406 c-27 -26 -57 -54 -68 -61 -27 -19 -15 -38 51 -83 106
-72 231 -193 288 -279 19 -28 35 -56 35 -62 0 -6 8 -15 19 -20 16 -9 27 -1 71
50 48 55 59 89 30 89 -19 0 -131 89 -189 149 -73 76 -166 199 -178 236 l-10
30 -49 -49z"/>
<path d="M2990 10220 c0 -44 -22 -72 -117 -150 -122 -100 -173 -176 -173 -258
0 -39 6 -39 55 -6 21 14 44 23 51 20 7 -3 18 -24 24 -48 41 -169 211 -268 328
-194 45 28 119 111 159 177 9 15 31 34 49 43 34 16 49 56 21 56 -7 0 -48 24
-91 53 -120 80 -136 90 -144 83 -3 -4 7 -32 23 -62 25 -46 30 -67 30 -123 0
-77 -16 -116 -57 -137 -80 -41 -184 18 -230 129 -9 23 -17 52 -17 65 -1 32 30
88 84 151 63 74 78 106 72 153 -9 68 -67 109 -67 48z"/>
<path d="M6195 9872 c-69 -29 -121 -69 -159 -120 -36 -49 -76 -153 -76 -197 0
-49 44 -137 96 -193 29 -31 54 -64 56 -74 5 -32 22 -22 48 28 38 76 133 164
220 206 72 35 167 68 196 68 21 0 17 18 -8 43 -24 23 -68 82 -68 91 0 21 -77
129 -104 145 -42 26 -142 28 -201 3z m222 -124 c27 -25 29 -47 7 -91 -40 -78
-72 -86 -125 -29 -72 76 -72 92 -5 123 55 25 95 24 123 -3z m-213 -135 c53
-80 43 -116 -41 -154 -56 -26 -67 -24 -97 12 -38 45 -34 78 17 133 57 59 87
61 121 9z"/>
<path d="M4510 9698 c-19 -5 -47 -12 -62 -15 -30 -6 -138 -98 -138 -118 0 -7
-7 -18 -15 -25 -8 -7 -15 -20 -15 -30 0 -9 -7 -31 -16 -49 -36 -73 -27 -365
15 -471 12 -30 24 -84 27 -120 3 -36 10 -78 15 -94 13 -41 11 -83 -5 -136 -23
-74 -43 -104 -109 -166 -63 -60 -73 -68 -162 -139 -27 -22 -70 -59 -94 -82
-25 -23 -48 -40 -53 -37 -13 8 -9 38 7 60 22 30 18 67 -14 111 -36 50 -80 82
-134 98 -34 10 -43 17 -45 39 -2 17 -13 31 -34 42 -26 14 -28 17 -16 32 18 21
68 138 68 159 0 21 -60 73 -85 73 -11 0 -26 4 -34 9 -18 12 -53 188 -46 229 5
29 9 33 28 27 12 -4 37 -9 55 -12 27 -4 32 -2 32 15 0 12 -4 23 -9 27 -6 3
-16 19 -25 35 -14 28 -13 31 11 50 14 11 32 20 40 20 8 0 13 7 11 16 -2 10
-22 22 -50 31 -51 15 -65 27 -50 46 6 7 13 29 17 50 6 31 4 37 -10 37 -9 0
-28 -9 -42 -20 -41 -32 -60 -26 -85 30 -13 27 -29 50 -35 50 -14 0 -28 -44
-19 -59 10 -15 -5 -41 -23 -41 -9 0 -34 9 -56 20 -76 39 -84 22 -28 -59 l37
-54 -29 -23 c-17 -13 -35 -24 -42 -24 -19 0 -27 -21 -12 -31 8 -5 26 -9 40 -9
15 0 37 -8 49 -18 21 -17 21 -19 6 -62 -8 -24 -13 -47 -10 -52 8 -13 41 -9 54
7 21 25 49 18 64 -17 31 -75 47 -139 46 -184 -4 -190 -3 -212 19 -242 24 -34
26 -54 9 -82 -9 -13 -9 -27 -3 -46 14 -38 33 -41 37 -7 2 22 8 28 28 28 31 0
39 -34 16 -67 -17 -24 -23 -128 -7 -128 5 0 14 7 21 15 12 14 15 14 31 -1 27
-24 24 -60 -6 -80 -38 -25 -33 -101 8 -119 19 -9 22 -17 20 -58 -1 -35 4 -54
17 -67 14 -14 17 -28 13 -63 -4 -30 0 -56 11 -78 9 -17 16 -46 16 -62 0 -47
21 -97 42 -97 20 0 36 -46 21 -61 -6 -6 -32 -9 -59 -7 l-49 3 0 41 c0 22 -7
49 -15 59 -9 11 -15 39 -15 75 0 33 -6 64 -14 73 -7 9 -17 49 -21 89 -5 40
-13 93 -19 118 -6 25 -12 61 -13 80 -2 19 -7 35 -13 35 -17 0 -18 -204 -1
-250 20 -53 24 -419 6 -520 -16 -90 -16 -97 0 -175 30 -155 42 -469 19 -511
-6 -11 -12 -64 -13 -117 -2 -79 -5 -96 -17 -92 -8 2 -46 6 -86 8 l-72 4 -44
-44 c-59 -59 -69 -117 -30 -173 19 -29 18 -179 -3 -210 -13 -19 -15 -47 -13
-137 2 -69 8 -119 15 -128 8 -10 14 -90 19 -240 6 -185 5 -231 -7 -260 -23
-57 -14 -192 21 -325 13 -51 14 -440 1 -465 -14 -27 -15 -184 -1 -260 17 -98
19 -573 2 -631 -12 -43 -11 -52 9 -110 16 -44 23 -91 26 -163 4 -125 5 -126
126 -126 49 0 133 -7 186 -15 265 -39 423 -42 1237 -17 390 12 460 22 756 106
31 9 64 16 75 16 11 0 29 7 41 15 17 12 22 28 27 97 3 46 9 117 14 159 5 41 5
102 0 135 -28 198 -32 434 -12 609 8 75 8 105 -1 175 -13 90 -14 614 -2 659 8
30 8 49 -1 74 -16 43 -25 530 -12 646 6 55 6 109 -1 151 -5 36 -14 100 -18
142 -5 42 -12 81 -15 86 -3 5 3 17 14 27 33 29 27 99 -12 156 -40 58 -74 79
-131 79 -47 0 -115 -39 -137 -80 -23 -42 -29 -16 -27 123 0 84 -4 156 -11 177
-13 41 -19 382 -7 480 10 86 9 113 -5 185 -6 36 -12 199 -13 407 -2 262 -5
350 -14 360 -17 16 -16 41 4 82 15 33 15 38 -2 75 -24 55 -81 109 -121 117
-68 13 -120 -16 -168 -93 -31 -51 -33 -81 -6 -130 21 -39 13 -73 -16 -73 -19
0 -185 141 -247 210 -84 93 -92 117 -90 261 1 72 9 155 17 193 9 37 16 88 16
114 0 26 7 82 15 124 11 59 12 90 4 130 -5 29 -16 88 -24 131 -7 43 -23 97
-34 120 -24 50 -87 118 -140 151 -33 21 -134 58 -150 55 -3 -1 -22 -5 -41 -11z
m148 -70 c51 -31 42 -51 -11 -23 -65 34 -212 -8 -288 -82 -26 -25 -39 -31 -44
-22 -5 7 -1 17 8 24 10 7 17 17 17 22 0 15 94 100 116 105 44 10 169 -5 202
-24z m-112 -80 c7 -10 -55 -70 -107 -103 -52 -34 -93 -92 -112 -159 -18 -66
-21 -71 -36 -61 -23 13 -12 104 19 168 36 72 127 164 168 169 33 4 60 -1 68
-14z m79 2 c3 -5 -3 -10 -14 -10 -12 0 -21 5 -21 10 0 6 6 10 14 10 8 0 18 -4
21 -10z m25 -128 c66 -23 120 -73 152 -139 21 -45 23 -60 23 -228 0 -164 -2
-185 -23 -241 -25 -66 -88 -153 -112 -154 -8 0 -24 -7 -34 -15 -25 -19 -86
-19 -128 -1 -18 8 -40 17 -48 21 -57 23 -97 59 -116 105 -49 115 -54 496 -8
514 8 3 14 11 14 19 0 20 80 92 135 121 54 28 61 28 145 -2z m-1160 -83 c0
-14 -26 -39 -40 -39 -7 0 -9 7 -6 16 3 9 6 20 6 25 0 5 9 9 20 9 11 0 20 -5
20 -11z m38 -96 c-3 -32 -44 -46 -54 -19 -10 26 4 46 31 46 23 0 26 -4 23 -27z
m-128 -18 c0 -16 -27 -32 -37 -21 -7 7 16 36 28 36 5 0 9 -7 9 -15z m99 -90
c44 -9 28 -25 -24 -25 -52 0 -62 12 -38 44 16 22 19 22 25 6 4 -10 20 -21 37
-25z m76 15 c-27 -12 -35 -12 -35 0 0 6 12 10 28 9 24 0 25 -1 7 -9z m873
-502 c38 -38 188 -62 211 -34 8 9 20 16 28 16 7 0 16 7 19 15 7 18 43 20 48 3
3 -7 7 -41 10 -76 6 -61 5 -64 -25 -92 -53 -48 -144 -90 -194 -90 -25 0 -45 4
-45 10 0 5 -11 12 -24 16 -13 3 -37 19 -52 35 -27 29 -29 35 -27 110 1 44 5
84 8 90 8 12 29 11 43 -3z m397 -181 c0 -52 -19 -51 -23 2 -2 32 0 42 10 39 8
-3 13 -20 13 -41z m571 -13 c35 -27 47 -75 23 -90 -12 -7 -187 -13 -206 -6
-24 8 -13 32 32 77 54 55 97 60 151 19z m-630 -21 c3 -10 10 -28 16 -39 11
-24 -4 -64 -25 -64 -43 0 -64 64 -33 99 23 26 35 27 42 4z m-1005 -7 c19 -8
45 -26 58 -40 21 -22 23 -31 15 -54 -8 -23 -16 -27 -51 -30 -38 -3 -44 0 -67
35 -14 21 -26 49 -26 64 0 43 15 48 71 25z m619 -40 c0 -40 -41 -63 -54 -29
-4 10 2 25 15 39 25 27 39 23 39 -10z m98 -8 c18 -18 15 -41 -8 -66 -24 -25
-39 -27 -63 -9 -15 10 -16 16 -5 44 15 40 52 55 76 31z m182 -7 c0 -13 -26
-32 -33 -24 -14 13 -6 33 13 33 11 0 20 -4 20 -9z m-403 -26 c2 -6 -13 -15
-33 -21 -29 -10 -37 -9 -41 3 -3 8 0 19 8 24 18 11 61 7 66 -6z m439 -51 c-4
-12 -10 -12 -26 -4 -26 14 -25 29 3 39 24 9 34 -6 23 -35z m-76 -4 c36 -71 18
-186 -33 -204 -74 -27 -119 47 -97 159 15 75 23 85 71 85 35 0 41 -4 59 -40z
m222 23 c18 -16 25 -63 9 -63 -12 0 -51 67 -44 74 9 9 15 7 35 -11z m562 -34
c31 -24 26 -39 -14 -39 -54 0 -96 31 -73 53 13 14 61 6 87 -14z m-1209 -27 c0
-18 -20 -15 -23 4 -3 10 1 15 10 12 7 -3 13 -10 13 -16z m1056 3 c-1 -15 -24
-12 -29 3 -3 9 2 13 12 10 10 -1 17 -7 17 -13z m-1148 -37 c8 -30 -15 -46 -42
-29 -10 7 -11 13 -2 30 15 27 37 27 44 -1z m-113 6 c0 -15 -36 -64 -47 -64
-18 0 -16 13 8 44 19 24 39 34 39 20z m1420 -39 c48 -24 60 -44 42 -71 -31
-47 -154 -45 -173 3 -7 19 -12 22 -28 14 -14 -8 -23 -5 -41 13 l-22 24 21 21
c32 32 135 30 201 -4z m-972 -47 c-3 -28 -11 -54 -17 -58 -8 -4 -13 -31 -13
-64 -1 -68 -13 -74 -21 -8 -4 31 -1 57 9 76 8 16 14 42 14 57 0 37 10 60 22
53 6 -4 8 -28 6 -56z m-634 36 c23 -9 19 -33 -10 -61 -31 -28 -44 -22 -44 21
0 45 14 55 54 40z m271 -54 c-17 -18 -45 -28 -45 -15 0 14 27 34 44 35 18 0
18 -1 1 -20z m603 -80 c2 -23 9 -52 16 -64 20 -32 28 -87 15 -103 -9 -10 -8
-19 7 -36 20 -23 44 -63 44 -72 0 -9 -61 -5 -81 5 -24 13 -24 33 -2 67 15 22
15 27 3 31 -46 16 -79 92 -45 106 15 5 22 46 8 46 -5 0 -15 5 -23 10 -12 7
-11 13 10 35 32 34 44 27 48 -25z m-833 18 c-10 -34 -23 -44 -31 -25 -9 23 2
47 21 47 12 0 15 -6 10 -22z m655 7 c36 -18 36 -21 9 -35 -16 -9 -26 -8 -45 5
-27 17 -32 45 -9 45 9 0 29 -7 45 -15z m-517 -20 c42 -18 64 -45 36 -45 -6 0
-28 -13 -48 -29 -20 -15 -62 -42 -94 -60 -73 -40 -81 -27 -36 59 30 56 73 105
89 98 3 -2 27 -12 53 -23z m1179 16 c29 -11 89 -71 82 -83 -11 -17 -47 -7
-100 28 -57 38 -65 50 -36 57 28 7 30 7 54 -2z m44 -154 c33 -12 39 -19 42
-45 2 -18 -1 -32 -8 -32 -39 0 -280 193 -280 224 0 2 46 -27 103 -65 57 -38
121 -75 143 -82z m-1096 113 c0 -17 -199 -205 -247 -234 -10 -5 -20 -3 -29 6
-13 12 -2 24 77 89 50 41 108 87 128 102 20 15 38 32 39 37 5 13 32 13 32 0z
m406 -45 c17 -16 34 -23 45 -20 14 5 20 -1 24 -22 3 -15 13 -54 22 -85 9 -31
13 -63 10 -72 -3 -8 -23 -24 -44 -35 -21 -10 -50 -31 -65 -45 -33 -33 -47 -18
-25 27 22 47 47 129 47 154 0 29 -17 38 -25 13 -3 -11 -15 -25 -26 -31 -16 -8
-25 -6 -44 13 -31 29 -32 74 -3 105 28 30 50 29 84 -2z m908 3 c3 -13 7 -105
11 -206 6 -203 2 -222 -46 -222 -36 0 -49 27 -49 103 0 29 -7 97 -15 152 -8
55 -15 112 -15 128 0 38 32 67 75 67 28 0 36 -4 39 -22z m-1302 -26 c-7 -2
-12 -8 -12 -14 0 -27 -174 -218 -222 -244 -33 -17 -38 -17 -38 -2 0 18 274
289 279 276 2 -7 -1 -14 -7 -16z m258 -34 c-1 -18 -7 -44 -15 -58 -8 -14 -15
-38 -15 -55 0 -16 -7 -39 -15 -49 -8 -11 -15 -33 -15 -49 0 -15 -7 -35 -15
-43 -8 -9 -15 -26 -15 -40 0 -13 -3 -24 -8 -24 -6 0 -40 -67 -56 -114 -5 -15
-9 -16 -21 -6 -19 16 -15 29 39 145 47 100 63 141 77 200 6 22 14 44 20 50 5
5 9 21 9 35 0 15 3 30 7 33 14 15 23 5 23 -25z m689 -46 c20 -18 69 -49 109
-69 40 -20 77 -42 82 -48 25 -30 43 -176 24 -194 -3 -3 -26 17 -51 44 -62 69
-223 282 -223 295 0 5 -4 10 -10 10 -5 0 -10 7 -10 17 0 18 -1 18 79 -55z
m-929 -3 c0 -14 -27 -63 -60 -109 -14 -19 -29 -43 -35 -52 -47 -78 -123 -177
-136 -178 -15 0 -39 38 -39 62 0 7 35 48 78 92 42 45 100 107 127 139 49 56
65 68 65 46z m144 -22 c-3 -9 -10 -17 -15 -17 -11 0 -12 34 -2 43 11 12 24 -8
17 -26z m693 16 c4 -10 11 -22 15 -28 5 -5 45 -59 90 -120 44 -60 100 -130
123 -155 86 -93 147 -192 128 -211 -10 -10 -43 -2 -43 11 0 4 -22 36 -48 71
-67 89 -262 377 -262 388 0 5 -7 14 -15 21 -17 14 -20 40 -5 40 6 0 14 -8 17
-17z m-57 -35 c0 -5 -4 -8 -10 -8 -5 0 -10 10 -10 23 0 18 2 19 10 7 5 -8 10
-18 10 -22z m-720 11 c0 -6 -6 -23 -14 -37 -8 -15 -36 -72 -64 -127 -68 -136
-70 -140 -125 -223 -27 -40 -57 -77 -68 -82 -17 -10 -19 -7 -19 29 0 31 11 54
53 112 53 75 85 124 109 169 7 14 35 58 62 98 45 67 66 87 66 61z m253 -13
c14 -11 17 -25 15 -62 -3 -43 -6 -48 -33 -57 -42 -14 -43 -16 -15 -37 l24 -18
-18 -51 c-20 -57 -14 -82 14 -56 16 15 18 13 29 -31 17 -67 37 -44 33 38 -4
91 34 123 91 78 14 -11 36 -20 49 -20 22 0 68 -45 68 -66 0 -4 15 -25 33 -48
58 -71 68 -107 24 -90 -14 5 -57 -42 -57 -64 0 -5 -19 -28 -41 -51 -35 -35
-47 -41 -84 -41 -48 0 -60 -7 -43 -27 16 -19 -4 -51 -52 -85 -45 -31 -128
-132 -136 -166 -10 -37 -44 -24 -73 28 -29 53 -32 126 -7 165 9 13 16 32 16
42 0 10 7 27 15 37 8 11 15 28 15 39 0 10 7 25 15 33 8 9 15 24 15 35 0 10 -7
19 -15 19 -9 0 -15 -9 -15 -24 0 -13 -7 -29 -15 -36 -8 -7 -15 -20 -15 -30 0
-10 -7 -23 -15 -30 -8 -7 -15 -21 -15 -31 0 -28 -18 -32 -31 -7 -13 23 -13 23
-24 -12 -6 -19 -17 -48 -25 -63 -13 -26 -12 -30 3 -38 22 -13 22 -52 1 -85
-13 -19 -14 -28 -5 -37 9 -9 13 -6 17 11 4 12 10 22 14 22 14 0 22 -40 12 -53
-5 -7 -13 -30 -16 -52 -10 -52 -31 -85 -57 -85 -32 0 -34 28 -5 59 26 27 34
65 17 76 -6 3 -14 -2 -19 -11 -11 -20 -32 -10 -32 14 0 9 7 26 15 36 8 11 15
26 15 34 0 7 7 20 15 28 17 17 20 34 6 34 -5 0 -13 -9 -16 -20 -3 -11 -12 -20
-20 -20 -16 0 -29 35 -20 50 4 6 -6 34 -21 63 -28 55 -33 102 -13 149 10 24
17 28 49 28 51 0 54 -8 20 -43 -16 -17 -27 -34 -24 -39 10 -15 75 44 81 74 6
28 20 45 29 35 3 -3 9 -27 14 -54 l9 -48 -4 55 c-2 30 -7 74 -11 98 -4 28 -2
42 5 42 6 0 16 11 21 25 5 14 20 30 34 36 21 10 24 17 23 70 0 61 13 85 56
102 18 7 22 27 8 43 -16 17 0 85 23 94 28 12 28 11 49 -4z m498 -38 c5 -13 25
-50 44 -83 19 -33 38 -67 42 -75 4 -8 59 -85 122 -170 123 -164 174 -251 185
-312 10 -56 -14 -49 -47 15 -15 28 -50 86 -77 127 -27 41 -55 85 -62 97 -13
22 -85 137 -120 191 -10 15 -22 37 -27 49 -5 11 -15 24 -20 28 -6 3 -11 15
-11 26 0 10 -4 19 -10 19 -5 0 -12 11 -16 25 -3 13 -12 29 -20 36 -16 13 -19
49 -4 49 6 0 15 -10 21 -22z m-705 -39 c-16 -39 -68 -169 -86 -216 -7 -18 -18
-38 -26 -44 -19 -15 -18 -39 1 -39 19 0 40 -43 32 -64 -4 -10 -18 -16 -36 -16
-31 0 -49 14 -31 25 5 3 10 18 10 31 0 31 -24 27 -28 -4 -2 -12 -7 -22 -12
-22 -5 0 -11 -15 -15 -32 -3 -18 -12 -46 -20 -63 -7 -16 -19 -45 -26 -63 -18
-50 -47 -82 -75 -82 -13 0 -24 5 -24 11 0 26 24 106 36 120 8 8 14 18 14 21 0
4 24 42 54 85 30 43 87 141 126 218 40 77 76 142 80 145 3 3 10 14 14 24 4 13
10 16 17 9 7 -7 5 -21 -5 -44z m582 10 c2 -13 10 -32 18 -43 8 -11 14 -30 14
-42 0 -12 6 -35 14 -51 8 -15 25 -50 39 -78 28 -58 71 -139 95 -177 9 -15 36
-57 60 -95 24 -37 48 -77 55 -88 7 -11 24 -36 40 -56 15 -20 27 -40 27 -44 0
-4 13 -24 28 -44 16 -20 32 -43 36 -51 8 -17 20 -38 59 -97 27 -43 34 -63 20
-63 -12 0 -43 36 -125 146 -176 233 -318 465 -318 519 0 13 -4 26 -9 29 -5 4
-12 28 -16 56 -4 27 -13 54 -21 61 -8 6 -14 22 -14 34 0 12 -7 28 -15 35 -19
15 -21 84 -2 78 6 -3 14 -15 15 -29z m-187 -52 c-13 -13 -26 -3 -16 12 3 6 11
8 17 5 6 -4 6 -10 -1 -17z m308 -69 c6 -13 19 -35 29 -50 24 -37 105 -165 117
-186 18 -30 146 -226 166 -254 10 -15 19 -30 19 -32 0 -3 14 -28 30 -54 28
-47 42 -118 20 -110 -5 2 -64 86 -132 188 -141 212 -134 201 -183 300 -97 196
-107 220 -87 220 5 0 14 -10 21 -22z m-1141 -34 c16 -5 22 -13 20 -28 -3 -23
-41 -32 -85 -21 l-26 6 23 25 c25 26 32 27 68 18z m44 -101 c22 -20 25 -105 4
-122 -7 -6 -17 -26 -20 -44 -6 -29 -8 -30 -20 -14 -7 9 -22 17 -32 17 -11 0
-30 7 -42 16 -18 13 -22 25 -22 72 0 52 3 59 28 74 35 22 80 23 104 1z m1591
-52 c23 -40 21 -63 -7 -90 -40 -37 -60 -25 -64 38 -4 67 1 81 31 81 14 0 29
-10 40 -29z m-1753 -31 c0 -20 -8 -35 -25 -46 -44 -29 -60 4 -24 50 28 35 49
34 49 -4z m1228 -75 c48 -40 53 -115 7 -115 -25 0 -34 8 -63 61 -18 33 -19 39
-6 58 19 27 26 26 62 -4z m-143 -69 c10 -29 11 -43 2 -57 -8 -13 -8 -24 1 -41
10 -18 10 -31 -1 -63 -11 -33 -20 -41 -47 -46 -43 -9 -61 -33 -53 -70 3 -17 0
-35 -7 -44 -10 -13 -11 -20 -1 -39 17 -30 10 -90 -10 -94 -8 -1 -27 8 -41 21
-23 21 -26 32 -26 88 0 43 5 69 15 81 14 16 12 20 -30 45 -59 36 -65 52 -32
80 30 27 57 29 75 8 16 -19 59 -20 66 -1 3 8 19 17 37 20 22 5 28 9 20 17 -8
8 -25 8 -62 -1 -28 -7 -58 -9 -66 -6 -19 7 -20 46 -1 46 8 0 36 22 62 49 59
60 81 61 99 7z m-926 -20 c25 -46 -32 -94 -58 -49 -7 13 -5 26 7 45 20 34 35
35 51 4z m1609 -56 c4 -103 -2 -122 -36 -118 -22 2 -27 9 -30 33 -1 17 -7 55
-13 87 -6 31 -8 61 -4 68 4 6 23 10 43 8 l37 -3 3 -75z m-462 -7 c47 -49 56
-73 36 -95 -8 -10 -20 -18 -27 -18 -10 0 -75 80 -75 93 0 11 20 57 24 57 3 0
22 -17 42 -37z m-1252 -108 c0 -71 -4 -152 -7 -180 -6 -44 -5 -47 5 -22 12 28
58 40 58 14 0 -25 -31 -77 -46 -77 -8 0 -19 -11 -24 -24 -11 -29 -49 -44 -61
-25 -5 8 -9 112 -9 232 l0 218 43 -3 42 -3 -1 -130z m135 61 l23 -24 -23 -31
c-26 -36 -21 -34 -53 -19 -39 17 -44 47 -12 75 34 29 37 29 65 -1z m169 2 c4
-23 -59 -109 -78 -105 -19 3 -15 55 6 78 8 8 14 20 14 26 0 26 53 27 58 1z
m821 -48 c24 -13 32 -65 18 -127 -17 -71 -27 -76 -27 -12 0 30 -6 63 -13 74
-9 13 -12 37 -8 70 3 28 7 40 9 27 2 -12 11 -26 21 -32z m109 -127 c-2 -27 -8
-39 -20 -41 -15 -3 -18 4 -18 44 0 32 -5 51 -16 59 -14 10 -15 15 -4 34 12 23
12 23 37 -18 17 -29 23 -52 21 -78z m-896 92 c21 -21 -51 -235 -79 -235 -19 0
-17 133 3 171 27 52 60 80 76 64z m444 -17 c13 -13 24 -26 24 -30 0 -4 -22
-10 -50 -14 -27 -4 -47 -11 -44 -16 3 -5 18 -6 33 -3 35 7 56 -16 64 -70 4
-22 12 -44 19 -50 7 -5 20 -23 28 -39 8 -16 35 -51 59 -78 34 -38 45 -58 46
-86 1 -29 6 -37 27 -44 36 -12 42 -34 20 -72 -28 -48 -86 -77 -151 -74 -56 3
-79 21 -42 33 14 4 21 15 21 31 0 24 -3 25 -47 23 -37 -3 -48 0 -48 11 0 12
12 14 55 12 30 -1 61 2 69 7 19 12 6 41 -19 41 -11 0 -20 5 -20 10 0 6 15 10
33 10 17 0 39 5 47 11 16 11 -65 7 -126 -6 -29 -6 -34 -3 -58 31 -14 21 -26
51 -26 66 0 64 -12 61 -57 -16 -24 -42 -49 -76 -56 -76 -21 0 -37 22 -37 50 0
14 -5 31 -12 38 -13 13 -13 81 1 95 11 11 41 -47 41 -80 0 -38 23 -22 33 23 4
21 6 56 2 78 -4 28 0 49 16 80 50 97 75 126 107 126 13 0 35 -10 48 -22z m589
-10 c15 -18 33 -44 39 -58 6 -14 23 -36 39 -48 15 -13 27 -30 27 -38 0 -8 20
-34 44 -57 70 -68 106 -125 106 -169 0 -27 -4 -38 -15 -38 -10 0 -15 10 -15
30 0 19 -8 37 -21 48 -41 33 -60 57 -66 82 -5 24 -79 100 -96 100 -4 0 -13 14
-19 30 -6 19 -19 32 -34 36 -34 9 -75 64 -67 92 8 33 46 28 78 -10z m-1195
-14 c17 -15 28 -30 23 -34 -4 -5 -31 -11 -59 -15 -46 -6 -54 -4 -73 16 -11 13
-21 30 -21 38 1 14 3 13 14 -1 17 -23 28 -23 44 2 16 27 34 25 72 -6z m858 -8
c7 -34 -9 -126 -21 -126 -14 0 -41 125 -31 141 10 17 49 5 52 -15z m682 -71
c0 -75 -2 -85 -18 -85 -10 0 -23 5 -30 12 -14 14 -16 104 -2 113 6 3 10 15 10
26 0 12 7 19 20 19 18 0 20 -7 20 -85z m-1500 -25 c0 -44 -109 -83 -124 -45
-10 27 4 42 52 57 53 17 72 14 72 -12z m1163 -39 c37 -38 67 -74 67 -79 0 -4
25 -37 56 -73 31 -35 60 -74 65 -86 5 -13 13 -23 19 -23 5 0 10 -7 10 -16 0
-9 6 -28 14 -42 16 -32 37 -112 44 -166 2 -22 11 -46 18 -54 18 -17 19 -55 2
-50 -7 3 -14 16 -16 31 -2 14 -10 31 -18 37 -8 7 -14 20 -14 29 0 10 -7 26
-15 37 -8 10 -15 39 -15 64 0 41 -5 50 -54 100 -30 30 -65 58 -78 61 -41 12
-98 9 -128 -6 -26 -13 -30 -13 -38 1 -5 9 -5 35 -1 58 7 40 -4 187 -16 207 -9
14 2 39 18 39 7 0 43 -31 80 -69z m-287 -65 c-7 -86 -11 -105 -20 -95 -8 8
-19 178 -12 194 5 15 9 15 22 4 14 -11 15 -27 10 -103z m44 24 c0 -16 -4 -30
-10 -30 -5 0 -10 14 -10 30 0 17 5 30 10 30 6 0 10 -13 10 -30z m110 -14 c0
-19 -37 -63 -45 -54 -4 4 -4 20 0 37 5 22 12 31 26 31 10 0 19 -6 19 -14z
m-912 -26 c2 -14 8 -29 12 -34 5 -5 5 -17 0 -27 -7 -12 -6 -20 1 -24 27 -17
34 -95 8 -95 -6 0 -22 14 -36 30 -14 17 -35 30 -47 30 -20 0 -22 5 -21 58 0
68 16 94 54 90 19 -2 27 -10 29 -28z m692 1 c0 -32 -16 -49 -31 -34 -14 14 0
63 17 63 9 0 14 -11 14 -29z m-944 -17 c-9 -13 -16 -32 -16 -44 0 -11 -6 -20
-14 -20 -7 0 -16 -9 -19 -21 -3 -12 -10 -18 -17 -14 -8 5 -7 14 4 31 9 13 16
28 16 34 0 18 42 70 52 64 5 -3 2 -17 -6 -30z m314 8 c0 -13 -12 -22 -22 -16
-10 6 -1 24 13 24 5 0 9 -4 9 -8z m-200 -27 c13 -16 6 -35 -15 -35 -18 0 -28
17 -21 35 7 19 20 19 36 0z m270 -48 c6 -44 5 -47 -14 -41 -21 7 -45 32 -46
47 0 4 6 16 13 27 21 34 41 20 47 -33z m1231 -40 c-8 -8 -11 -5 -11 9 0 27 14
41 18 19 2 -9 -1 -22 -7 -28z m-1715 8 c9 -36 -2 -55 -30 -55 -13 0 -31 -3
-40 -6 -26 -10 -29 22 -5 55 29 39 66 42 75 6z m132 13 c19 -19 14 -38 -18
-65 -47 -39 -40 -53 26 -53 30 0 79 -8 107 -17 l52 -18 -95 -8 c-113 -9 -144
-4 -135 22 3 11 1 22 -5 26 -15 9 -12 34 11 82 21 44 36 52 57 31z m107 -48
c0 -19 -6 -26 -26 -28 -34 -4 -57 22 -39 44 8 8 25 14 39 12 20 -2 26 -9 26
-28z m1045 -10 c0 -9 -58 -60 -68 -60 -4 0 -14 5 -22 10 -12 8 -9 14 20 38 31
26 70 33 70 12z m-970 -25 c0 -8 -7 -15 -15 -15 -16 0 -20 12 -8 23 11 12 23
8 23 -8z m1183 -11 c9 -3 24 -18 32 -33 13 -26 13 -30 -5 -46 -25 -23 -25 -41
0 -55 26 -14 25 -40 -1 -87 -27 -50 -50 -72 -56 -56 -3 7 -13 23 -23 35 -17
21 -19 22 -37 7 -10 -9 -25 -19 -33 -23 -8 -3 -27 -14 -42 -24 -97 -62 -182
-112 -189 -112 -5 0 -9 9 -9 20 0 20 23 48 56 70 17 10 16 10 -6 4 -14 -4 -43
-7 -65 -6 -48 0 -57 -11 -49 -59 3 -23 -1 -51 -10 -74 -9 -21 -16 -54 -16 -75
0 -25 -9 -50 -30 -78 -16 -23 -30 -48 -30 -56 0 -22 19 -30 26 -12 3 9 12 16
20 16 18 0 18 -47 -1 -80 -8 -14 -14 -39 -15 -57 0 -17 -6 -44 -14 -60 -41
-81 -50 -114 -37 -135 10 -17 10 -23 -5 -39 -9 -10 -27 -19 -38 -19 -12 0 -32
-7 -44 -16 -14 -10 -38 -14 -69 -12 -42 3 -48 6 -44 23 11 65 -4 240 -35 393
-15 77 -11 94 39 165 9 13 9 20 1 25 -14 8 0 52 16 52 14 0 13 27 -2 32 -19 7
2 28 28 28 14 0 24 6 24 14 0 7 7 19 15 26 8 7 15 23 15 35 0 12 -7 28 -15 35
-44 37 23 52 183 42 l83 -5 -2 -38 c-2 -21 -1 -41 2 -43 3 -3 25 13 49 35 38
36 42 42 27 51 -15 8 -13 12 15 36 18 15 38 34 45 42 9 11 16 12 29 4 13 -8
22 -5 41 12 24 23 30 49 13 59 -14 8 6 34 35 46 19 8 89 4 128 -7z m170 10 c9
-9 -4 -35 -14 -28 -5 3 -9 12 -9 20 0 14 12 19 23 8z m369 -90 c10 -3 21 -16
24 -30 5 -19 -2 -32 -34 -65 -39 -39 -43 -40 -98 -37 -48 3 -60 7 -76 29 -25
33 -11 67 40 98 36 21 84 22 144 5z m-1982 -34 c0 -31 -36 -110 -50 -110 -5 0
-12 10 -15 21 -10 32 -25 4 -25 -48 0 -52 -15 -93 -34 -93 -23 0 -30 38 -12
65 11 16 16 47 16 94 0 38 4 72 9 75 4 3 19 -3 31 -14 25 -22 40 -26 40 -11 0
5 4 22 10 36 12 33 30 24 30 -15z m426 18 c11 -39 34 -59 55 -48 23 13 46 4
52 -20 7 -26 0 -30 -48 -30 -57 0 -95 30 -95 74 0 49 23 64 36 24z m-642 -13
c30 -28 32 -44 11 -84 -19 -38 -73 -46 -134 -20 -24 11 -49 19 -57 19 -22 0
-26 19 -8 49 36 61 139 81 188 36z m471 -15 c0 -12 -19 -16 -99 -18 -62 -2
-103 1 -110 8 -21 21 18 30 114 28 77 -3 95 -6 95 -18z m463 -27 c-2 -9 -21
-25 -43 -37 -66 -34 -77 -48 -64 -84 7 -22 7 -36 0 -51 -22 -41 -13 -145 33
-367 10 -44 16 -111 14 -150 l-3 -69 -35 -3 c-19 -1 -46 -5 -60 -8 -23 -6 -24
-7 -5 -14 11 -5 41 -9 67 -9 26 -1 50 -6 53 -12 9 -14 3 -18 -33 -23 -18 -2
-38 -9 -46 -15 -11 -9 -23 -8 -54 4 -22 9 -51 15 -64 13 -20 -3 -23 -9 -23
-42 0 -23 5 -41 13 -43 7 -3 12 5 12 21 0 31 16 42 37 24 9 -7 30 -17 47 -23
23 -8 32 -18 37 -42 8 -38 4 -43 -30 -43 -18 0 -31 9 -43 30 -18 31 -48 41
-48 15 0 -40 -56 17 -64 66 -8 42 -2 51 52 78 43 22 43 23 26 42 -15 16 -18
40 -20 132 -3 150 -2 147 -15 147 -8 0 -10 -23 -6 -79 5 -82 -3 -115 -24 -94
-19 19 -7 202 15 235 15 24 17 40 11 105 -5 61 -3 89 10 128 19 56 39 79 105
121 95 60 155 80 148 47z m-360 -21 c4 -23 -22 -68 -53 -94 -25 -21 -42 -12
-21 11 9 10 16 26 16 35 0 25 32 77 45 73 5 -2 11 -13 13 -25z m-154 -31 c7
-11 -28 -21 -81 -21 -48 0 -75 8 -67 21 7 12 141 12 148 0z m-174 -69 c0 -27
-6 -57 -15 -68 -8 -10 -15 -30 -15 -44 0 -13 -7 -44 -17 -68 -12 -32 -13 -46
-5 -54 9 -9 13 -4 18 19 3 18 12 34 20 37 8 3 14 12 14 20 0 20 65 75 98 81
15 3 40 10 56 15 28 9 63 -2 156 -49 10 -6 17 -31 21 -83 4 -41 12 -92 19
-113 24 -71 -5 -332 -37 -343 -10 -3 -13 21 -13 95 0 99 -12 147 -26 109 -10
-25 3 -187 16 -200 5 -5 10 -35 11 -65 1 -31 4 -67 8 -81 6 -22 8 -20 19 23 7
26 17 47 22 47 14 0 13 -196 -1 -223 -7 -11 -13 -52 -15 -90 -1 -38 -7 -74
-12 -79 -15 -15 -168 -15 -184 0 -9 9 -14 58 -16 170 -1 86 -9 226 -18 311 -8
84 -14 194 -13 245 2 75 -1 92 -14 94 -26 5 -29 -62 -17 -441 13 -384 12 -395
-31 -417 -15 -9 -24 -8 -35 1 -13 11 -15 35 -10 158 12 262 15 640 6 646 -14
8 -20 -23 -21 -108 0 -45 -4 -91 -8 -101 -6 -17 -9 -15 -28 13 -18 29 -19 36
-7 69 15 42 19 188 5 196 -12 8 -28 -13 -37 -49 -3 -17 -13 -41 -20 -55 -8
-14 -17 -47 -21 -74 -9 -55 -23 -64 -34 -22 -19 71 16 198 78 278 23 31 43 65
43 75 0 11 7 28 15 39 8 11 15 41 15 70 0 28 3 54 7 57 16 16 23 4 23 -41z
m1737 -54 c-6 -32 -15 -58 -19 -58 -10 0 -11 124 -1 134 4 3 12 1 19 -6 9 -10
9 -27 1 -70z m-1547 62 c0 -13 -13 -17 -72 -23 -50 -5 -75 4 -64 22 9 14 136
15 136 1z m1124 -29 c9 -13 -78 -81 -141 -110 -11 -5 -24 -15 -28 -20 -8 -14
-35 -14 -35 -1 0 6 7 13 16 17 9 3 30 19 47 34 17 16 37 29 43 29 7 0 14 7 18
15 3 8 12 15 19 15 8 0 20 7 27 15 14 17 26 19 34 6z m630 -3 c2 -7 9 -30 15
-51 11 -34 11 -41 -5 -58 -13 -15 -31 -19 -79 -19 -69 0 -75 5 -75 66 0 62 13
74 81 74 39 0 61 -4 63 -12z m-2184 -27 c17 -33 13 -99 -7 -109 -10 -5 -23 -7
-30 -5 -7 2 -28 -3 -47 -12 -53 -26 -83 -14 -91 35 -7 40 -1 75 17 98 7 7 36
12 79 12 57 0 70 -3 79 -19z m1754 -11 c34 -20 89 -91 119 -152 18 -37 18 -38
-2 -80 -11 -24 -29 -64 -40 -90 -10 -25 -31 -54 -46 -64 -37 -24 -111 -22
-155 5 -43 26 -70 27 -70 3 0 -24 71 -64 133 -73 55 -9 62 -13 52 -28 -9 -16
-107 -13 -129 4 -24 18 -56 20 -56 3 0 -7 12 -21 26 -32 35 -25 168 -28 204
-5 14 9 39 19 56 22 30 6 32 4 39 -30 3 -19 3 -76 -1 -127 l-8 -91 -8 84 c-8
91 -22 123 -34 75 -9 -39 -39 -131 -58 -174 -14 -34 -55 -81 -106 -119 -20
-16 -22 -22 -13 -32 10 -10 21 -6 57 19 l44 32 -5 -68 c-3 -49 -2 -63 6 -52 6
8 11 23 11 33 0 31 25 13 28 -20 4 -41 -50 -111 -108 -140 -54 -26 -141 -31
-160 -8 -7 8 -21 15 -32 15 -10 0 -21 7 -24 15 -4 8 -10 15 -15 15 -5 0 -25
16 -46 36 -32 31 -35 38 -22 48 14 9 15 26 8 111 -12 136 -25 239 -40 307 -10
46 -11 65 -1 92 9 23 9 42 3 59 -17 44 -25 191 -12 216 7 13 47 39 94 61 45
21 111 64 147 94 73 63 109 71 164 36z m127 -43 c-8 -8 -11 -3 -11 19 1 25 2
27 11 11 8 -14 8 -22 0 -30z m300 -113 c60 -2 69 -8 69 -45 0 -40 -39 -78 -82
-81 -96 -5 -128 13 -128 73 0 46 31 74 70 63 14 -4 46 -8 71 -10z m-2202 -21
c13 -12 23 -35 27 -70 6 -48 5 -52 -20 -68 -15 -10 -48 -19 -74 -20 -67 -3
-92 21 -92 89 0 28 4 56 8 62 16 26 122 30 151 7z m1977 3 c7 -18 -14 -58 -27
-51 -16 10 -11 65 6 65 9 0 18 -6 21 -14z m-666 -136 c0 -44 -2 -50 -21 -50
-19 0 -20 4 -14 43 8 48 12 57 26 57 5 0 9 -22 9 -50z m934 -66 c4 -14 9 -117
12 -229 4 -175 3 -209 -11 -235 -16 -31 -18 -32 -68 -25 -29 4 -65 16 -80 27
-30 21 -42 18 -42 -13 0 -10 -4 -20 -10 -21 -13 -4 -18 93 -6 111 8 12 12 12
25 2 14 -11 16 -11 16 5 0 67 23 343 29 360 9 21 95 56 118 47 6 -2 14 -16 17
-29z m-906 -18 c5 -25 -38 -68 -61 -62 -13 3 -21 -3 -28 -22 -8 -22 -12 -24
-19 -12 -4 8 -6 27 -3 43 4 23 8 25 20 15 12 -9 19 -6 38 18 14 16 24 33 25
37 0 16 25 1 28 -17z m-1334 -38 c15 -29 17 -58 13 -223 -4 -211 -16 -271 -52
-260 -11 3 -34 8 -52 12 -29 5 -32 9 -37 52 -4 25 -7 129 -9 231 -2 183 -2
185 20 188 12 2 27 10 33 18 7 8 25 14 40 14 20 0 31 -8 44 -32z m1926 17 c0
-8 -4 -15 -10 -15 -5 0 -10 7 -10 15 0 8 5 15 10 15 6 0 10 -7 10 -15z m-1849
-182 c2 -52 -6 -77 -22 -68 -10 7 -12 105 -3 130 11 27 23 -4 25 -62z m1194
38 c8 -14 -30 -32 -49 -25 -30 11 -16 34 20 34 13 0 25 -4 29 -9z m706 -496
c19 -526 28 -718 34 -765 6 -42 5 -47 -25 -68 l-31 -23 -28 30 c-31 33 -26 46
19 46 21 0 25 4 22 25 -4 34 -26 54 -59 55 -28 0 -28 1 -29 70 0 39 4 81 8 95
5 14 11 106 14 205 8 349 16 530 25 568 6 21 12 88 15 148 2 61 5 113 5 117 5
23 20 -229 30 -503z m-1789 215 c-4 -187 -7 -207 -27 -170 -10 18 -10 30 -3
45 6 11 12 83 13 160 2 77 4 158 5 180 l3 40 6 -45 c4 -25 5 -119 3 -210z
m1165 178 c-2 -13 -4 -5 -4 17 -1 22 1 32 4 23 2 -10 2 -28 0 -40z m-167 -44
c0 -15 -53 -54 -74 -54 -40 0 -38 13 6 36 45 22 68 28 68 18z m-182 -66 c-7
-19 -86 -32 -104 -18 -23 20 -6 30 52 30 40 0 54 -4 52 -12z m67 3 c3 -5 1
-12 -4 -15 -13 -8 -42 4 -35 15 7 12 31 12 39 0z m-374 -34 c-1 -12 -15 -9
-19 4 -3 6 1 10 8 8 6 -3 11 -8 11 -12z m459 0 c0 -7 -17 -21 -37 -31 -36 -17
-37 -19 -18 -32 10 -8 28 -14 40 -14 11 0 32 -8 45 -17 17 -12 45 -18 89 -18
67 0 89 -15 53 -34 -15 -8 -31 -7 -60 3 -22 8 -50 12 -61 9 -12 -3 -43 3 -69
13 -35 13 -70 17 -135 16 -75 -2 -94 1 -123 18 -19 12 -34 26 -34 31 0 16
-106 11 -120 -6 -14 -17 -46 -20 -54 -6 -10 16 71 50 124 52 40 2 54 -1 62
-14 5 -9 15 -17 22 -17 8 0 19 -7 26 -15 9 -10 32 -15 75 -15 87 0 95 5 95 51
0 39 0 39 40 39 26 0 40 -4 40 -13z m-1075 -27 c8 -16 15 -38 15 -50 0 -29
-29 -82 -40 -75 -11 7 -14 138 -3 148 10 10 11 9 28 -23z m1135 -9 c0 -17 -4
-32 -9 -35 -12 -8 -23 23 -16 45 10 29 25 22 25 -10z m-187 4 c-4 -15 -96 -12
-101 3 -3 10 9 12 49 10 30 -2 53 -7 52 -13z m825 -40 c6 -14 8 -25 4 -25 -12
0 -32 23 -32 37 0 22 16 15 28 -12z m-1019 -29 l22 -23 -37 -44 c-40 -48 -53
-58 -101 -75 -26 -9 -35 -9 -44 2 -6 8 -22 14 -35 14 -40 0 -35 11 51 105 34
38 46 44 81 44 30 1 46 -5 63 -23z m136 -66 c0 -20 -6 -26 -28 -28 -16 -2 -36
-1 -44 3 -14 5 -12 9 8 31 30 32 64 29 64 -6z m166 -2 c23 -18 44 -38 46 -44
5 -14 -94 -47 -115 -39 -10 4 -22 -2 -32 -15 l-16 -22 -18 27 c-33 50 5 125
63 125 18 0 46 -13 72 -32z m1074 10 c34 -16 45 -28 45 -45 0 -26 -22 -40 -77
-49 -35 -5 -43 -3 -57 17 -17 24 -20 56 -10 83 9 22 45 20 99 -6z m-2205 -26
c29 -22 36 -59 15 -86 -11 -15 -29 -20 -77 -21 -35 -1 -71 2 -81 7 -40 21 -42
102 -3 119 31 13 117 2 146 -19z m1871 -139 c3 -359 -5 -514 -25 -446 -2 10
-8 86 -12 168 -5 104 -10 137 -14 108 -3 -23 -14 -51 -23 -61 -9 -10 -17 -24
-17 -30 0 -15 -42 -82 -65 -105 -12 -13 -35 -17 -93 -17 -75 0 -78 1 -123 40
-62 53 -189 220 -239 314 -46 88 -53 141 -20 151 20 6 47 -14 204 -159 78 -71
144 -95 230 -82 79 12 114 55 157 194 29 97 39 78 40 -75z m-493 97 c5 0 12
-7 16 -15 3 -8 12 -15 20 -15 8 0 16 -3 18 -7 5 -13 66 -53 79 -53 7 0 21 -8
31 -17 27 -25 163 -25 200 -1 14 9 29 14 32 11 9 -10 -64 -73 -92 -80 -65 -16
-185 27 -254 91 -21 19 -38 38 -38 41 0 3 -11 16 -25 29 -14 13 -25 30 -25 37
1 10 4 9 14 -3 7 -10 18 -18 24 -18z m-432 -23 c11 -12 23 -33 26 -47 7 -29
25 -80 44 -128 8 -18 14 -42 14 -53 0 -11 5 -30 12 -42 6 -12 14 -48 18 -82 7
-54 41 -166 77 -253 8 -18 13 -38 11 -43 -4 -13 -178 -21 -178 -8 0 5 6 12 14
15 26 10 40 60 28 107 -6 23 -18 74 -27 112 -9 39 -23 93 -31 121 -8 28 -14
59 -14 69 0 10 -6 41 -14 69 -34 117 -41 167 -25 177 19 12 21 12 45 -14z
m-90 -67 c12 -36 29 -101 39 -145 9 -44 24 -106 32 -139 18 -72 9 -87 -40 -67
-17 7 -59 20 -92 28 -33 9 -66 17 -72 19 -24 6 -13 21 26 36 21 9 46 27 55 41
15 23 16 31 2 88 -17 77 -24 179 -12 197 17 28 40 6 62 -58z m-438 4 c24 -17
29 -56 9 -72 -10 -8 -24 -8 -51 0 -44 14 -51 25 -37 61 12 31 44 36 79 11z
m170 -19 c4 -31 -19 -55 -59 -61 -32 -5 -38 -3 -44 15 -15 47 12 71 75 67 17
-1 26 -8 28 -21z m489 3 c5 -7 24 -51 42 -98 133 -345 223 -516 328 -627 98
-103 194 -135 274 -94 46 24 64 16 53 -24 -13 -43 19 -40 -381 -33 -165 3
-195 5 -209 20 -16 16 -15 19 19 58 41 45 46 77 23 151 -7 24 -22 71 -31 104
-10 33 -24 78 -30 100 -7 22 -21 67 -30 100 -10 33 -23 76 -30 95 -7 19 -21
62 -30 95 -10 33 -25 79 -33 102 -8 23 -11 46 -7 52 8 15 30 14 42 -1z m113
-28 c10 -19 41 -82 69 -140 95 -200 171 -291 284 -343 71 -32 123 -20 191 44
15 15 34 25 41 23 14 -6 25 -103 13 -111 -5 -2 -8 -33 -8 -69 0 -180 -134
-230 -266 -99 -104 103 -187 247 -284 491 -28 71 -60 150 -71 176 -10 26 -19
52 -19 58 0 23 32 4 50 -30z m-499 -20 c18 -22 37 -40 43 -40 18 -1 56 -37 56
-54 0 -19 -49 -22 -54 -3 -15 47 -15 48 -35 38 -16 -9 -24 -5 -50 24 -30 35
-38 55 -24 68 14 15 34 5 64 -33z m1544 9 c14 -26 16 -55 11 -172 -3 -78 -6
-164 -5 -192 0 -72 -19 -135 -42 -135 -10 0 -21 5 -24 10 -3 6 -21 10 -38 10
l-32 0 4 86 c2 52 -2 108 -11 142 -8 32 -14 104 -13 162 l0 105 60 6 c33 3 63
6 67 7 4 1 15 -12 23 -29z m-1923 -19 c-4 -37 -40 -92 -57 -87 -18 7 -7 79 17
104 29 31 44 24 40 -17z m-327 2 c18 -13 55 -91 55 -115 0 -14 -6 -37 -14 -52
-19 -36 -5 -82 34 -116 35 -30 51 -72 55 -149 4 -69 -21 -152 -44 -148 -13 3
-16 15 -14 56 3 56 -1 60 -31 37 -44 -33 -128 -4 -146 51 -13 37 -10 394 3
412 5 6 22 12 38 12 15 0 31 5 34 10 7 12 16 12 30 2z m565 -72 c6 -11 14 -43
17 -71 6 -51 6 -51 -17 -38 -24 15 -73 107 -64 121 10 16 53 8 64 -12z m874
-193 c56 -55 103 -83 162 -97 60 -13 126 -1 160 32 16 14 24 16 29 7 5 -7 1
-17 -8 -24 -10 -7 -17 -17 -17 -24 0 -6 -5 -11 -12 -11 -6 0 -20 -8 -30 -17
-14 -13 -37 -17 -88 -17 -64 0 -73 3 -125 39 -54 37 -135 134 -135 162 0 7 -4
13 -10 13 -5 0 -10 8 -10 18 1 13 6 10 22 -12 12 -16 40 -47 62 -69z m-1161
47 c25 -19 48 -42 51 -49 6 -17 -82 -71 -94 -59 -13 13 -25 144 -13 144 5 0
30 -16 56 -36z m310 -104 c34 0 43 -17 21 -41 -12 -13 -30 -19 -58 -19 -38 0
-44 4 -69 42 -19 30 -27 55 -27 88 l0 45 53 -57 c39 -42 60 -58 80 -58z m5 72
c3 -9 -3 -13 -19 -10 -12 1 -24 9 -27 16 -3 9 3 13 19 10 12 -1 24 -9 27 -16z
m198 -42 c16 -6 35 -20 42 -31 20 -32 -1 -49 -59 -49 -52 0 -75 21 -62 57 12
34 32 39 79 23z m-396 -20 c26 -26 25 -36 -6 -65 -43 -40 -73 -27 -74 33 0 14
36 52 50 52 6 0 19 -9 30 -20z m556 -37 c27 -30 41 -70 28 -83 -16 -16 -100
31 -112 63 -14 38 -8 47 29 47 20 0 39 -9 55 -27z m-654 -48 c3 -27 -1 -40
-18 -56 -29 -27 -42 -18 -42 28 0 43 12 63 38 63 13 0 19 -10 22 -35z m226
-21 c32 -25 36 -26 75 -13 23 7 50 20 60 28 17 14 20 14 32 -2 10 -14 10 -25
-2 -60 -8 -23 -19 -46 -24 -51 -5 -6 -9 -17 -9 -24 0 -20 -68 -102 -85 -102
-18 0 -84 79 -92 110 -3 14 -12 34 -19 45 -20 27 -17 72 4 84 23 14 21 14 60
-15z m219 -106 c-4 -44 -20 -93 -43 -140 -8 -14 -14 -35 -14 -46 0 -11 -7 -22
-15 -26 -8 -3 -15 -17 -15 -31 0 -14 -4 -25 -10 -25 -5 0 -16 -15 -24 -32 -45
-104 -80 -87 -129 62 -40 123 -50 171 -39 182 8 8 13 6 18 -8 9 -23 39 -55 75
-78 25 -16 28 -16 61 3 40 24 65 56 98 129 14 28 29 52 33 52 5 0 7 -19 4 -42z
m1323 2 c0 -21 -5 -30 -16 -30 -11 0 -14 5 -10 16 3 9 6 22 6 30 0 8 5 14 10
14 6 0 10 -13 10 -30z m198 -23 c22 -15 14 -64 -15 -87 -30 -23 -81 -23 -109
1 -18 15 -18 64 1 82 16 16 99 18 123 4z m-1968 -4 c0 -5 -5 -15 -10 -23 -8
-12 -10 -11 -10 8 0 12 5 22 10 22 6 0 10 -3 10 -7z m1560 -45 c0 -10 -4 -18
-10 -18 -5 0 -10 15 -10 33 0 24 3 28 10 17 5 -8 10 -23 10 -32z m-781 10 c12
-31 -2 -54 -40 -67 -55 -19 -81 27 -39 69 27 27 68 26 79 -2z m-1044 0 c22
-10 25 -17 25 -59 0 -39 -4 -51 -21 -59 -16 -9 -26 -8 -44 4 -14 9 -41 16 -61
16 -64 0 -91 41 -58 88 13 18 25 22 74 22 33 0 71 -5 85 -12z m379 -4 c3 -9 6
-129 6 -268 0 -220 -3 -263 -20 -331 -11 -44 -26 -83 -33 -87 -6 -5 -30 -7
-52 -6 -39 3 -40 4 -43 46 -2 23 1 42 6 42 13 0 19 38 37 229 8 91 19 169 24
174 5 5 11 -30 15 -90 4 -54 9 -118 13 -143 l6 -45 8 40 c4 22 8 133 8 248 1
187 7 237 25 191z m766 3 c74 -61 51 -114 -30 -72 -32 16 -40 51 -18 73 15 15
29 15 48 -1z m-888 -47 c13 -24 18 -47 14 -73 -4 -39 -44 -94 -57 -80 -7 8
-13 110 -10 166 2 39 28 32 53 -13z m658 -31 c0 -24 -4 -29 -24 -29 -29 0 -56
24 -56 50 0 23 18 29 53 17 21 -7 27 -15 27 -38z m-185 -6 c-4 -10 -10 -31
-13 -48 -3 -16 -11 -35 -18 -43 -8 -7 -14 -22 -14 -33 0 -10 -4 -19 -9 -19 -5
0 -14 -12 -20 -27 -6 -16 -20 -41 -31 -58 -11 -16 -25 -39 -30 -50 -34 -63
-42 -75 -51 -75 -5 0 -9 9 -9 20 0 11 5 20 10 20 6 0 13 8 17 18 12 36 45 102
54 108 5 3 9 16 9 28 0 13 7 29 15 36 8 7 15 21 15 32 0 11 7 26 15 34 8 9 15
26 15 39 0 21 11 29 44 34 4 0 5 -7 1 -16z m1137 -24 c5 -26 3 -38 -12 -53
-34 -35 -53 9 -30 69 13 35 33 27 42 -16z m-1702 -36 c-1 -38 -3 -44 -11 -30
-9 16 -4 77 7 77 2 0 4 -21 4 -47z m610 13 c0 -12 -7 -31 -15 -42 -8 -10 -15
-29 -15 -40 0 -12 -7 -27 -15 -34 -8 -7 -15 -20 -15 -30 0 -10 -7 -23 -15 -30
-8 -7 -15 -21 -15 -32 0 -10 -6 -21 -14 -24 -8 -3 -17 -16 -20 -30 -4 -13 -11
-24 -16 -24 -13 0 -13 7 3 38 8 15 21 42 30 60 9 19 17 42 17 52 0 9 7 23 15
30 8 7 15 25 15 40 0 16 7 30 15 34 8 3 15 16 15 29 0 13 3 27 6 30 11 11 24
-3 24 -27z m60 -58 c0 -22 -6 -52 -14 -66 -7 -15 -42 -85 -78 -157 -61 -125
-65 -130 -97 -133 -32 -3 -33 -2 -26 25 3 15 13 35 21 44 8 8 14 20 14 26 0 6
7 13 15 17 12 4 105 184 105 203 0 19 43 92 51 87 5 -3 9 -23 9 -46z m93 -8
c-3 -38 -12 -72 -69 -248 -21 -63 -44 -117 -53 -122 -11 -5 -24 -2 -40 12 -24
19 -24 20 -9 51 30 62 78 180 78 193 0 13 6 28 44 117 22 51 52 48 49 -3z
m1289 5 c8 -26 21 -266 21 -377 1 -75 -55 -111 -111 -72 -24 17 -28 41 -11 78
9 19 8 39 -5 90 -16 66 -23 296 -9 310 4 4 30 6 57 4 46 -3 50 -5 58 -33z
m-1208 -80 c-2 -149 -32 -305 -68 -344 -9 -10 -16 -23 -16 -29 0 -18 -35 -14
-53 6 -15 17 -15 23 -2 73 35 124 46 166 55 205 5 22 13 51 19 65 5 13 13 41
16 62 5 32 10 38 28 35 20 -3 22 -8 21 -73z m-1015 56 c8 -5 18 -35 24 -68 11
-71 8 -372 -4 -394 -10 -19 -85 -31 -111 -17 -9 4 -19 16 -22 25 -4 16 -11
395 -7 431 2 26 89 42 120 23z m452 -23 c11 -26 25 -49 53 -90 12 -19 16 -36
11 -55 -9 -37 -75 -134 -86 -127 -10 6 -13 277 -2 287 10 11 13 9 24 -15z
m806 -52 c7 -6 14 -22 15 -36 3 -24 0 -25 -47 -25 -47 0 -50 1 -59 33 -7 26
-6 36 4 42 17 10 70 2 87 -14z m292 18 c22 -5 33 -14 38 -32 8 -32 -18 -52
-68 -52 -39 0 -49 11 -49 54 0 37 15 43 79 30z m-125 -26 c11 -15 12 -26 5
-40 -8 -15 -19 -18 -57 -16 -40 3 -47 6 -50 26 -6 40 5 52 47 52 29 0 44 -6
55 -22z m300 16 c19 -7 21 -45 4 -62 -15 -15 -63 -16 -89 -2 -18 10 -26 50
-12 63 8 9 76 9 97 1z m108 -24 c39 -40 32 -62 -19 -58 -33 3 -38 6 -41 31 -7
63 14 72 60 27z m168 -20 c0 -6 -11 -10 -25 -10 -23 0 -34 18 -19 33 9 8 44
-11 44 -23z m-865 -52 c36 -23 65 -44 66 -47 0 -3 2 -22 3 -41 2 -19 7 -51 11
-71 5 -27 3 -40 -10 -52 -20 -21 -81 -22 -115 -2 -14 8 -36 14 -48 15 -23 0
-24 3 -19 53 3 28 10 70 16 92 6 22 13 52 16 68 3 15 8 27 10 27 3 0 35 -19
70 -42z m161 -40 c13 -13 24 -30 24 -38 0 -9 6 -25 14 -36 8 -11 17 -36 21
-55 5 -29 2 -38 -20 -57 -40 -35 -58 -25 -71 36 -7 29 -17 58 -22 65 -14 16
-26 83 -17 96 11 18 46 12 71 -11z m233 -4 c17 -14 44 -43 62 -65 l32 -40 -23
-25 c-13 -13 -29 -24 -35 -24 -26 0 -115 128 -115 165 0 24 45 18 79 -11z
m150 -39 c66 -70 79 -102 36 -91 -13 3 -46 29 -72 57 -26 28 -54 57 -60 64
-20 21 -15 35 11 35 15 0 43 -21 85 -65z m-251 1 c47 -62 60 -99 42 -121 -20
-24 -44 -17 -64 18 -42 71 -56 102 -56 129 0 46 32 35 78 -26z m318 38 c-4
-10 1 -22 10 -29 19 -14 12 -48 -8 -40 -12 5 -58 68 -58 80 0 3 14 5 31 5 25
0 30 -3 25 -16z m117 -67 c4 -23 7 -51 9 -62 2 -14 -3 -21 -17 -23 -15 -2 -25
7 -38 33 -17 35 -23 115 -10 128 14 15 51 -35 56 -76z m82 -2 c26 -61 28 -75
9 -75 -34 0 -64 40 -64 85 0 23 3 45 7 49 9 9 30 -18 48 -59z m-1843 -72 c9
-10 22 -35 29 -56 14 -39 11 -45 -26 -61 -6 -3 -4 -9 5 -15 13 -9 12 -15 -7
-48 -12 -21 -26 -36 -30 -33 -7 5 -12 206 -5 223 5 12 18 8 34 -10z m517 -22
c8 -5 11 -16 8 -25 -5 -13 -11 -14 -32 -4 -14 6 -25 17 -25 25 0 15 28 17 49
4z m129 -3 c-7 -20 -48 -23 -48 -4 0 11 9 16 26 16 16 0 24 -5 22 -12z m912 6
c0 -10 -50 -54 -61 -54 -14 0 -11 27 7 44 15 16 54 22 54 10z m130 -18 c0 -17
-63 -66 -84 -66 -23 0 -27 15 -8 31 56 47 92 61 92 35z m-267 -13 c4 -3 3 -11
-2 -17 -5 -6 -11 -22 -13 -35 -4 -34 -25 -38 -39 -8 -8 18 -8 30 0 46 11 20
41 28 54 14z m474 -9 c2 -6 -23 -9 -64 -7 -81 2 -75 1 -69 11 7 11 129 8 133
-4z m-1509 -16 c21 -21 13 -28 -28 -28 -38 0 -52 14 -33 33 11 11 48 8 61 -5z
m657 -2 c44 -1 82 -5 84 -11 4 -9 -57 -27 -89 -25 -55 2 -145 16 -142 23 1 4
2 12 2 18 0 8 11 9 33 4 17 -4 68 -8 112 -9z m255 -1 c0 -11 -145 -145 -157
-145 -22 0 -15 18 14 32 16 8 30 25 34 42 10 35 55 75 87 76 12 0 22 -2 22 -5z
m634 -3 c4 -7 -27 -42 -38 -42 -2 0 1 11 7 25 12 26 22 31 31 17z m-1126 -69
c2 -8 -5 -13 -17 -13 -12 0 -21 6 -21 16 0 18 31 15 38 -3z m537 -30 c-26 -18
-32 -7 -9 16 10 10 21 14 23 8 2 -6 -4 -16 -14 -24z m205 30 c0 -5 -7 -17 -15
-27 -8 -11 -15 -30 -15 -43 0 -25 -25 -42 -40 -27 -14 14 7 81 28 93 20 12 42
14 42 4z m-450 -23 c0 -11 -7 -20 -15 -20 -15 0 -21 21 -8 33 12 13 23 7 23
-13z m1046 -12 c39 -23 42 -36 13 -72 -45 -57 -164 -18 -140 46 13 34 50 60
74 52 11 -3 35 -15 53 -26z m-1900 10 c4 -6 3 -13 -3 -15 -6 -2 -18 -10 -28
-17 -18 -13 -17 -15 10 -40 26 -24 27 -26 7 -26 -30 0 -62 30 -62 57 0 41 57
72 76 41z m309 -11 c-6 -19 -22 -136 -24 -174 -1 -7 -12 -13 -25 -13 -20 0
-24 6 -29 41 -7 55 -19 66 -57 52 -16 -6 -31 -8 -34 -5 -15 14 -4 69 17 92 20
21 33 25 91 27 66 2 68 1 61 -20z m-467 -25 c9 -10 23 -28 30 -40 10 -18 10
-22 -2 -22 -25 0 -70 45 -63 63 8 21 13 21 35 -1z m536 12 c13 -5 14 -9 5 -20
-9 -11 -15 -11 -25 -3 -8 6 -11 15 -8 20 6 11 8 11 28 3z m162 -19 c-4 -17 -2
-25 6 -25 94 -2 226 -14 240 -21 12 -6 41 -6 84 2 56 10 80 9 148 -5 97 -21
170 -47 168 -61 -1 -6 -133 -11 -366 -12 -326 -2 -367 -1 -381 14 -11 11 -14
24 -10 42 9 36 22 49 55 56 16 3 34 13 41 21 17 21 22 17 15 -11z m-878 -18
c16 -13 15 -42 -4 -79 -14 -28 -19 -30 -54 -25 -55 7 -100 41 -100 76 0 15 5
32 11 38 13 13 128 5 147 -10z m410 6 c-2 -11 -14 -19 -31 -21 -22 -3 -27 1
-27 17 0 17 6 21 31 21 24 0 30 -4 27 -17z m1269 -25 c29 -27 29 -43 1 -62
-29 -21 -38 -12 -38 40 0 50 4 53 37 22z m-1239 -59 c30 -10 47 -33 36 -50 -6
-10 -161 -11 -218 -1 l-40 7 28 19 c16 10 58 21 95 26 36 4 66 8 67 9 1 0 15
-4 32 -10z m1786 -51 c9 -13 16 -43 16 -69 0 -43 -3 -49 -35 -69 -19 -12 -39
-19 -44 -15 -26 16 -41 141 -19 163 20 20 65 14 82 -10z m-799 -23 c33 -9 65
-23 72 -33 25 -35 34 -42 58 -42 13 0 36 -10 50 -22 l26 -23 -38 -45 c-80 -94
-61 -86 -228 -88 -83 -1 -184 -6 -225 -12 -41 -5 -115 -9 -165 -9 -82 0 -94 2
-130 27 -38 26 -40 31 -43 85 -4 69 14 97 85 134 27 14 52 29 58 34 17 16 414
11 480 -6z m-865 -35 c47 -24 60 -45 60 -101 0 -36 -5 -47 -40 -79 -23 -21
-61 -45 -86 -55 -44 -17 -48 -17 -107 3 -50 16 -63 25 -65 44 -2 12 -8 27 -12
32 -5 5 -2 18 5 30 13 19 12 26 -6 60 -22 41 -18 72 9 79 9 3 59 5 110 6 75 1
100 -3 132 -19z m-588 -27 c14 -13 18 -31 18 -90 0 -83 -8 -89 -67 -53 -40 24
-64 98 -47 144 8 22 72 21 96 -1z"/>
<path d="M4420 9241 c-14 -26 -13 -38 2 -23 18 18 80 14 108 -8 31 -24 40 -25
40 -2 0 45 -128 73 -150 33z"/>
<path d="M4652 9248 c-21 -21 -15 -41 11 -33 28 10 65 10 97 0 l25 -8 -24 27
c-27 28 -87 36 -109 14z"/>
<path d="M4429 9164 c-11 -14 -10 -18 6 -30 25 -19 38 -18 66 5 l24 19 -28 11
c-38 15 -52 14 -68 -5z"/>
<path d="M4678 9169 c-36 -21 -21 -39 32 -39 42 0 50 3 50 19 0 29 -47 41 -82
20z"/>
<path d="M4524 8976 c-3 -9 -1 -23 6 -32 19 -21 119 -16 134 8 16 26 2 31 -51
20 -40 -9 -51 -8 -65 5 -16 14 -18 14 -24 -1z"/>
<path d="M4524 8866 c-18 -14 -17 -15 18 -30 50 -21 91 -20 119 3 l24 19 -28
11 c-40 15 -110 14 -133 -3z"/>
<path d="M4765 8390 c-8 -13 4 -32 16 -25 12 8 12 35 0 35 -6 0 -13 -4 -16
-10z"/>
<path d="M4597 7554 c-14 -15 -6 -34 14 -34 14 0 19 5 17 17 -3 18 -20 27 -31
17z"/>
<path d="M4369 7523 c6 -10 19 -29 30 -42 l19 -24 7 22 c8 27 -18 61 -47 61
-15 0 -17 -3 -9 -17z"/>
<path d="M4375 7419 c-4 -11 -4 -23 -2 -26 9 -8 27 7 27 22 0 23 -18 27 -25 4z"/>
<path d="M4493 7407 c-3 -5 2 -23 10 -40 9 -18 19 -45 22 -60 7 -32 25 -27 25
8 0 13 5 25 12 27 7 3 13 20 13 40 2 35 1 36 -38 34 -21 0 -41 -5 -44 -9z"/>
<path d="M4434 6954 c3 -9 6 -18 6 -20 0 -3 5 -2 10 1 16 10 12 35 -6 35 -11
0 -14 -5 -10 -16z"/>
<path d="M4500 6796 c0 -8 5 -18 10 -21 6 -3 10 -17 10 -31 0 -26 20 -40 45
-30 12 4 9 14 -16 51 -31 45 -49 57 -49 31z"/>
<path d="M5000 6454 c0 -9 5 -14 12 -12 18 6 21 28 4 28 -9 0 -16 -7 -16 -16z"/>
<path d="M5076 6404 c-27 -24 -46 -47 -43 -51 15 -14 117 59 117 84 0 24 -24
13 -74 -33z"/>
<path d="M5007 5293 c-10 -16 38 -52 122 -92 52 -25 126 -28 135 -6 3 8 11 15
18 15 15 1 53 49 44 57 -3 3 -29 -6 -57 -20 -61 -32 -69 -33 -139 -6 -30 11
-64 23 -75 27 -11 3 -25 12 -31 20 -6 9 -13 11 -17 5z"/>
<path d="M3895 3930 c-7 -32 1 -54 16 -45 12 8 12 62 0 69 -5 4 -12 -7 -16
-24z"/>
<path d="M2568 9683 c-46 -7 -103 -73 -127 -146 -16 -48 -33 -75 -62 -101 -47
-43 -49 -56 -8 -56 95 0 376 -213 412 -312 12 -33 33 -18 80 56 49 77 56 95
35 97 -61 3 -105 13 -127 27 -80 51 -222 166 -240 195 -53 86 9 167 116 150
30 -5 57 -26 140 -109 109 -108 132 -121 201 -109 43 7 86 39 79 58 -3 7 -23
19 -46 27 -23 7 -72 42 -115 80 -153 137 -213 162 -338 143z"/>
<path d="M6580 9505 c-47 -76 -163 -192 -215 -216 -11 -5 -27 -13 -35 -18 -41
-24 -95 -41 -130 -41 -44 0 -57 -12 -34 -31 26 -21 64 -86 64 -108 0 -11 8
-27 17 -36 16 -16 17 -16 30 1 7 10 13 26 13 35 0 24 71 84 197 168 117 78
159 92 198 67 38 -25 34 -70 -11 -112 -40 -39 -70 -43 -106 -14 -30 23 -48 11
-48 -31 0 -35 -21 -84 -69 -163 -22 -35 -48 -87 -58 -115 -16 -46 -16 -54 -3
-78 23 -40 35 -38 63 9 14 24 36 55 49 68 54 56 88 109 88 136 0 16 3 39 6 52
6 22 10 23 54 17 79 -11 134 22 161 97 21 59 0 110 -81 193 -37 39 -77 89 -89
113 -12 23 -25 42 -30 42 -5 0 -19 -16 -31 -35z"/>
<path d="M2301 9274 c-6 -23 -40 -74 -81 -123 l-70 -85 0 -68 c0 -82 20 -133
78 -199 44 -49 130 -99 204 -117 53 -14 144 2 191 33 31 20 67 78 67 108 1 35
35 100 69 130 49 43 47 45 -89 97 -113 44 -206 105 -290 191 l-69 71 -10 -38z
m109 -184 c45 -23 50 -44 23 -88 -36 -57 -75 -102 -89 -102 -32 0 -104 109
-104 157 0 12 7 29 16 37 22 23 106 21 154 -4z m157 -105 c26 -18 63 -88 63
-119 0 -26 -60 -86 -86 -86 -8 0 -33 9 -54 20 -35 18 -40 25 -40 54 0 51 57
144 90 146 3 0 15 -7 27 -15z"/>
<path d="M6788 8970 c-81 -43 -95 -102 -63 -267 8 -43 15 -94 15 -114 0 -75
-75 -93 -118 -29 -29 43 -27 113 6 181 37 76 27 95 -33 63 -16 -9 -58 -25 -92
-35 -35 -11 -63 -25 -63 -30 0 -6 11 -20 24 -30 14 -11 34 -39 44 -62 37 -80
52 -118 52 -128 0 -16 38 -61 68 -81 62 -41 198 1 236 73 18 34 19 42 7 125
-7 49 -17 111 -22 138 -13 67 11 120 57 124 65 6 98 -101 59 -195 -17 -40 -20
-73 -6 -73 5 0 36 14 69 30 34 17 74 30 90 30 45 0 45 10 2 47 -21 18 -48 54
-59 78 -12 25 -30 65 -42 90 -30 66 -59 85 -133 85 -40 -1 -73 -7 -98 -20z"/>
<path d="M2033 8813 c-3 -10 -21 -50 -39 -88 -19 -39 -34 -76 -34 -83 0 -8 20
-12 66 -12 38 0 77 -6 92 -14 15 -8 76 -38 136 -67 74 -36 128 -71 167 -106
31 -29 61 -53 67 -53 6 0 14 16 18 35 3 19 21 56 40 81 37 52 36 64 -4 64 -39
0 -147 33 -226 69 -73 33 -141 81 -214 150 -48 45 -60 49 -69 24z"/>
<path d="M7138 8558 c-14 -18 -47 -44 -74 -58 -27 -14 -69 -36 -94 -50 -41
-24 -148 -70 -226 -100 -17 -6 -43 -8 -57 -4 -35 8 -36 -13 -3 -64 13 -21 27
-52 31 -70 10 -47 32 -51 61 -14 31 40 137 109 239 157 71 34 89 38 159 39 47
1 81 5 83 12 2 6 -12 31 -31 56 -22 29 -36 59 -38 83 -4 50 -19 54 -50 13z"/>
<path d="M1980 8518 c-30 -11 -63 -27 -74 -36 -25 -23 -52 -80 -59 -125 -3
-22 -22 -71 -42 -110 -20 -39 -34 -76 -31 -84 4 -9 24 -13 61 -13 94 0 252
-64 400 -161 40 -27 78 -49 83 -49 6 0 13 12 17 28 3 15 17 49 31 75 13 27 21
53 18 59 -3 5 -22 7 -43 3 -28 -5 -41 -2 -50 9 -11 13 -9 22 15 53 26 34 29
46 29 109 0 67 -3 75 -39 128 -84 122 -189 160 -316 114z m128 -115 c30 -10
73 -34 96 -54 38 -34 41 -40 40 -88 0 -35 -6 -57 -20 -72 -17 -19 -26 -21 -82
-15 -62 7 -177 51 -214 84 -13 11 -18 30 -18 69 0 49 2 55 33 73 40 25 94 25
165 3z"/>
<path d="M7196 8323 c-3 -4 -4 -33 0 -65 5 -48 4 -59 -10 -64 -9 -3 -24 0 -33
7 -11 10 -44 14 -107 14 -102 -1 -143 -18 -189 -78 -62 -82 -61 -170 3 -301
30 -60 45 -106 48 -143 5 -60 21 -69 53 -29 23 30 109 86 169 111 25 10 56 29
69 41 22 20 23 24 8 30 -9 3 -35 -1 -56 -9 -41 -17 -105 -12 -162 11 -35 14
-69 71 -69 116 0 123 128 191 254 135 65 -28 91 -76 111 -201 13 -80 106 -137
148 -90 23 25 22 27 -20 66 l-38 34 -5 124 c-7 141 -23 187 -92 256 -39 40
-66 51 -82 35z"/>
<path d="M1757 8033 c-28 -33 -57 -126 -57 -188 0 -48 -7 -71 -30 -114 -17
-30 -26 -59 -22 -63 10 -10 57 5 67 21 12 21 36 11 78 -34 29 -30 79 -63 162
-105 124 -64 166 -95 192 -143 12 -24 17 -26 30 -16 11 10 14 24 9 57 -8 60
-27 87 -112 160 -83 71 -90 92 -54 162 17 33 26 40 49 40 40 0 109 -26 148
-56 37 -28 53 -25 53 12 0 13 9 41 20 61 39 74 23 92 -68 74 -60 -11 -138 -2
-266 33 -71 19 -96 34 -132 81 -30 39 -44 43 -67 18z m145 -183 c48 -14 60
-36 46 -83 -13 -42 -24 -45 -76 -18 -66 34 -100 80 -75 104 10 10 63 8 105 -3z"/>
<path d="M3684 7956 c-3 -9 -3 -24 1 -33 6 -17 7 -17 21 2 8 10 13 24 11 29
-6 17 -27 18 -33 2z"/>
<path d="M7453 7635 c-51 -73 -43 -69 -116 -56 -42 7 -115 9 -204 5 -118 -6
-143 -4 -170 10 -31 15 -33 15 -43 -3 -12 -23 -1 -58 26 -83 27 -23 119 -48
181 -48 58 0 75 -15 87 -76 9 -40 -22 -80 -74 -95 -32 -10 -47 -9 -90 7 -64
23 -77 11 -51 -50 21 -53 73 -136 84 -136 5 0 35 24 67 53 116 104 227 139
330 102 50 -18 100 -20 100 -4 0 6 -13 30 -29 53 -54 81 -65 125 -58 241 5 86
3 105 -8 105 -8 0 -22 -11 -32 -25z m-48 -167 c35 -16 31 -33 -17 -68 -55 -40
-92 -40 -112 2 -19 37 -20 50 -4 66 15 15 99 16 133 0z"/>
<path d="M1589 7528 c-1 -2 -3 -34 -5 -73 -1 -38 -10 -87 -18 -107 -9 -22 -16
-66 -16 -106 0 -61 4 -74 31 -111 50 -70 137 -98 201 -65 46 24 62 42 103 119
49 91 72 123 97 136 43 23 108 -34 108 -97 0 -35 -70 -104 -134 -133 -25 -11
-46 -26 -46 -34 0 -8 22 -26 50 -41 27 -15 63 -39 80 -52 42 -36 55 -27 56 37
0 33 9 75 24 109 13 30 25 83 27 116 4 53 1 67 -21 103 -64 101 -173 132 -248
71 -20 -17 -50 -57 -66 -90 -53 -105 -68 -120 -116 -120 -32 0 -48 6 -64 23
-47 50 -18 119 78 186 66 47 67 58 7 81 -18 7 -50 21 -73 31 -38 18 -52 22
-55 17z"/>
<path d="M7409 7122 c-53 -39 -70 -76 -79 -172 -9 -99 -14 -115 -48 -152 -31
-33 -80 -38 -105 -10 -33 36 -22 91 33 171 28 40 50 77 50 81 0 5 -29 7 -64 3
-37 -3 -77 -1 -95 5 -41 15 -50 -4 -27 -56 12 -26 16 -59 14 -112 -4 -97 21
-151 90 -197 40 -28 57 -33 105 -33 53 0 59 3 101 43 31 29 46 53 49 77 3 19
11 75 17 123 10 68 18 95 37 118 43 50 88 35 99 -33 10 -58 -13 -115 -67 -171
-27 -28 -49 -54 -49 -58 0 -4 42 -10 93 -12 50 -2 101 -6 112 -8 25 -5 33 32
10 51 -12 10 -15 35 -15 117 0 107 -14 156 -58 206 -46 52 -147 61 -203 19z"/>
<path d="M1530 6873 c-33 -22 -40 -33 -40 -64 0 -63 90 -93 129 -43 27 35 27
65 -1 91 -34 30 -60 35 -88 16z"/>
<path d="M1757 6833 c-20 -5 -37 -41 -37 -78 0 -34 32 -67 63 -67 66 0 94 90
41 131 -27 21 -34 23 -67 14z"/>
<path d="M1963 6795 c-34 -24 -32 -96 3 -124 26 -21 46 -19 77 7 18 16 24 86
9 109 -13 21 -65 26 -89 8z"/>
<path d="M1460 6547 c0 -9 8 -32 17 -52 16 -34 16 -38 -2 -88 -12 -31 -19 -77
-19 -114 0 -55 4 -68 31 -100 42 -53 98 -83 156 -83 94 0 133 40 165 167 30
120 50 142 124 143 38 0 68 -42 68 -96 0 -38 -6 -49 -43 -86 -23 -24 -62 -60
-87 -80 -37 -31 -42 -39 -30 -47 8 -6 28 -11 43 -11 16 0 53 -12 82 -26 30
-14 59 -23 64 -19 6 3 7 34 4 73 -4 47 0 89 11 133 14 59 15 70 1 117 -26 86
-101 152 -175 152 -39 0 -101 -32 -120 -62 -17 -27 -49 -142 -50 -176 0 -14
-15 -39 -35 -59 -29 -29 -40 -34 -63 -28 -15 3 -35 14 -45 23 -56 51 -42 101
49 172 88 70 86 83 -26 122 -126 43 -120 42 -120 25z"/>
<path d="M7608 6545 c-30 -17 -45 -64 -29 -92 5 -10 21 -25 35 -33 24 -12 29
-11 54 7 39 29 43 83 6 112 -31 25 -31 25 -66 6z"/>
<path d="M7363 6516 c-16 -34 -16 -38 0 -71 15 -32 21 -35 57 -35 38 0 42 3
56 36 14 33 13 38 -4 67 -14 25 -26 33 -55 35 -33 3 -38 0 -54 -32z"/>
<path d="M7155 6485 c-14 -13 -25 -34 -25 -45 0 -25 51 -80 75 -80 24 0 75 55
75 80 0 29 -44 70 -75 70 -14 0 -37 -11 -50 -25z"/>
<path d="M7304 6264 c-45 -16 -100 -63 -128 -108 -15 -24 -17 -41 -11 -105 10
-121 10 -154 2 -179 -12 -33 14 -38 93 -18 86 23 212 18 340 -13 133 -32 125
-33 122 14 -5 66 -4 116 3 185 6 61 5 67 -22 105 -35 47 -95 91 -155 112 -62
22 -193 26 -244 7z m212 -119 c148 -39 187 -119 89 -187 -38 -26 -46 -27 -152
-28 -85 0 -122 4 -150 17 -62 28 -83 52 -83 94 0 32 6 43 35 66 61 48 164 64
261 38z"/>
<path d="M1493 6004 c-3 -9 -1 -31 6 -49 9 -27 8 -48 -10 -123 -20 -88 -20
-93 -4 -143 20 -60 77 -123 143 -157 34 -17 59 -22 125 -22 105 0 166 21 229
80 42 39 50 54 65 114 14 58 15 76 4 120 -7 28 -16 80 -19 116 -6 51 -10 64
-22 61 -8 -1 -37 -9 -65 -17 -90 -25 -211 -29 -305 -9 -47 10 -97 24 -113 32
-24 12 -28 12 -34 -3z m212 -137 c20 -31 28 -101 18 -157 -7 -39 -12 -45 -36
-48 -40 -5 -126 46 -145 85 -25 53 5 91 103 129 43 16 43 16 60 -9z m231 -18
c89 -55 59 -154 -56 -180 -38 -9 -46 -7 -66 12 -20 19 -24 32 -24 81 0 34 7
72 16 90 15 28 18 30 57 24 23 -4 55 -16 73 -27z"/>
<path d="M7166 5783 c-12 -12 -6 -69 10 -91 17 -24 83 -62 109 -62 27 0 94
-39 106 -62 14 -27 5 -128 -13 -139 -17 -11 -95 -11 -102 0 -6 9 -106 45 -111
39 -10 -13 -36 -140 -33 -163 4 -37 17 -37 110 -2 69 26 134 33 261 29 62 -2
72 -5 97 -32 15 -16 33 -30 39 -30 6 0 23 26 37 58 21 47 25 67 20 113 -5 51
3 129 20 187 10 34 -12 27 -51 -15 l-34 -37 -33 17 c-36 20 -67 38 -113 67
-57 36 -110 57 -185 75 -41 10 -82 23 -90 30 -24 20 -37 25 -44 18z m360 -239
c54 -22 104 -62 104 -83 0 -31 -22 -41 -91 -41 -59 0 -70 3 -83 22 -20 28 -20
39 -2 83 17 40 20 41 72 19z"/>
<path d="M1745 5451 c-106 -20 -182 -84 -212 -177 -19 -61 -13 -107 22 -158
30 -44 44 -94 34 -126 -10 -37 -10 -80 0 -80 6 0 21 10 34 23 27 24 146 86
215 111 56 21 155 20 215 -1 60 -22 76 -10 52 37 -13 26 -15 44 -9 94 18 130
-17 205 -117 257 -44 22 -168 33 -234 20z m192 -113 c42 -18 93 -69 93 -93 0
-59 -136 -117 -301 -130 -81 -7 -88 -6 -109 15 -18 18 -21 30 -17 62 7 50 26
71 95 104 110 52 185 65 239 42z"/>
<path d="M7231 5213 c-39 -8 -85 -49 -109 -96 -19 -37 -22 -61 -22 -150 0 -89
-3 -113 -21 -147 -13 -24 -18 -45 -13 -50 5 -5 70 -4 154 3 114 9 145 15 148
27 1 10 -14 21 -45 33 -70 27 -132 59 -151 80 -24 27 -20 107 9 146 51 69 220
47 293 -39 36 -44 41 -72 26 -161 -11 -71 -10 -83 6 -130 17 -47 62 -99 85
-99 18 0 21 29 5 52 -27 39 -21 124 14 186 17 28 43 76 60 105 34 60 39 118
13 172 -16 34 -43 48 -43 23 0 -17 -70 -118 -82 -118 -5 0 -27 20 -50 45 -66
72 -134 113 -198 118 -30 3 -66 3 -79 0z"/>
<path d="M2085 4915 c-73 -60 -254 -125 -350 -125 -22 0 -61 8 -87 17 -26 9
-50 14 -53 11 -4 -3 3 -25 15 -49 16 -30 20 -52 16 -77 -14 -90 41 -204 127
-263 49 -33 52 -34 151 -34 119 0 159 16 224 90 62 71 82 116 82 186 0 52 -5
68 -32 108 -24 35 -33 60 -36 104 -5 64 -13 68 -57 32z m22 -154 c60 -37 56
-91 -11 -146 -35 -29 -52 -36 -78 -33 -28 3 -36 10 -55 48 -27 56 -30 125 -5
139 29 18 114 13 149 -8z m-248 -52 c10 -17 22 -55 26 -85 9 -77 -2 -88 -79
-80 -103 11 -136 69 -76 134 26 29 79 60 103 62 4 0 16 -14 26 -31z"/>
<path d="M7026 4618 c-27 -111 -30 -103 40 -100 98 6 232 -38 282 -91 18 -19
23 -34 20 -68 -3 -40 -7 -46 -40 -62 -31 -15 -43 -16 -80 -7 -40 11 -107 41
-168 75 -38 22 -83 19 -108 -8 -12 -13 -22 -31 -22 -40 0 -14 7 -16 45 -11 43
6 45 5 107 -53 39 -37 82 -67 112 -78 47 -18 51 -18 98 -1 64 23 103 58 124
112 15 39 15 47 1 88 -22 64 0 75 65 31 20 -14 43 -25 51 -25 14 0 27 40 27
87 0 13 7 35 16 49 25 38 8 49 -57 35 -103 -22 -242 6 -392 80 -26 13 -57 32
-67 42 -11 9 -23 17 -27 17 -5 0 -17 -33 -27 -72z"/>
<path d="M2139 4390 c-47 -8 -97 -38 -123 -73 -19 -26 -21 -42 -21 -179 l0
-151 -27 -20 c-22 -17 -33 -19 -54 -11 -47 16 -69 57 -69 127 0 52 4 68 28 98
40 53 36 63 -20 54 -27 -5 -69 -9 -95 -9 -60 -1 -67 -10 -34 -42 14 -15 29
-39 32 -53 25 -127 57 -201 100 -230 30 -21 42 -23 103 -19 76 6 110 24 144
81 17 27 19 49 18 161 -1 120 1 131 21 153 25 27 45 29 75 8 36 -25 49 -85 33
-150 -7 -31 -17 -58 -22 -61 -4 -3 -8 -16 -8 -30 0 -22 3 -24 23 -18 12 4 47
8 77 8 72 1 86 10 62 40 -10 13 -26 50 -36 82 -42 137 -50 160 -69 186 -18 24
-42 38 -87 50 -8 2 -31 1 -51 -2z"/>
<path d="M6955 4113 c-47 -24 -86 -64 -106 -108 -24 -51 -23 -75 1 -155 31
-96 86 -162 175 -207 69 -35 199 -37 263 -3 99 52 140 132 121 235 -22 122
-80 187 -213 240 -52 21 -200 20 -241 -2z m210 -119 c84 -36 108 -50 145 -84
21 -20 42 -48 45 -63 14 -55 -18 -110 -71 -123 -76 -19 -292 63 -358 137 -47
51 -50 106 -8 139 25 20 35 22 117 17 53 -3 107 -12 130 -23z"/>
<path d="M2366 3899 c-30 -24 -35 -72 -10 -107 21 -30 73 -30 102 1 31 33 28
70 -9 101 -37 31 -49 32 -83 5z"/>
<path d="M2145 3790 c-19 -37 -19 -55 1 -84 26 -40 90 -41 116 -2 16 23 8 67
-17 91 -35 36 -80 34 -100 -5z"/>
<path d="M6767 3722 c-9 -9 -27 -51 -41 -94 -28 -88 -47 -126 -89 -185 -37
-53 -33 -59 71 -103 42 -17 82 -36 89 -42 14 -12 33 -2 33 16 0 8 -8 20 -17
27 -69 57 -94 150 -52 195 21 22 22 22 62 6 41 -16 71 -31 197 -99 36 -19 93
-62 127 -96 54 -52 63 -58 68 -41 3 10 20 47 37 80 17 34 28 67 24 73 -4 6
-26 11 -49 11 -61 0 -170 41 -310 116 -40 22 -117 103 -117 125 0 26 -15 31
-33 11z"/>
<path d="M1966 3709 c-23 -18 -27 -28 -24 -62 4 -49 37 -75 82 -63 54 13 62
111 10 134 -33 16 -37 15 -68 -9z"/>
<path d="M2421 3623 c-64 -9 -113 -53 -130 -118 -8 -33 -6 -56 11 -120 33
-128 34 -147 3 -183 -15 -18 -34 -32 -42 -32 -29 0 -75 35 -89 69 -25 60 -16
111 33 177 13 17 23 36 23 42 0 16 -40 14 -70 -3 -14 -8 -42 -14 -62 -15 -52
0 -68 -9 -68 -36 0 -13 3 -24 8 -24 9 0 38 -59 82 -163 36 -84 61 -110 121
-128 32 -10 46 -9 82 5 65 24 123 84 132 133 7 46 -1 105 -21 144 -7 14 -16
49 -20 77 -6 48 -4 53 24 82 38 38 61 38 98 -1 59 -61 60 -139 3 -211 -27 -34
-38 -68 -22 -68 18 0 189 44 197 51 5 4 -5 25 -21 46 -40 51 -63 104 -63 143
0 90 -93 149 -209 133z"/>
<path d="M6564 3283 c-3 -16 -20 -45 -36 -66 -16 -21 -27 -44 -25 -51 3 -7 24
-16 48 -20 23 -4 54 -13 68 -20 24 -13 43 -21 136 -61 112 -48 173 -97 200
-161 21 -51 44 -42 61 24 8 29 21 66 29 82 23 44 20 63 -8 56 -64 -16 -331
119 -414 209 -39 42 -51 44 -59 8z"/>
<path d="M2717 3195 c-35 -40 -179 -151 -266 -203 -40 -25 -67 -34 -107 -36
-30 -1 -56 -5 -59 -8 -3 -3 4 -18 17 -34 25 -31 53 -85 63 -122 8 -29 35 -26
51 6 6 12 19 31 30 43 24 28 213 168 244 182 8 4 35 18 59 32 24 14 52 25 62
25 30 0 31 18 4 54 -15 19 -30 47 -34 62 -11 41 -27 40 -64 -1z"/>
<path d="M4373 2981 c-21 -26 -55 -75 -75 -107 -20 -33 -73 -112 -117 -178
-73 -107 -81 -123 -81 -166 0 -58 3 -60 120 -60 99 0 116 -9 105 -59 -3 -16
-1 -39 5 -50 9 -18 20 -21 74 -21 71 0 76 4 76 71 0 26 7 46 20 59 29 29 26
85 -5 122 -25 29 -25 31 -25 228 0 171 -2 199 -16 204 -31 12 -44 5 -81 -43z
m-65 -293 l-3 -93 -62 -3 c-78 -4 -80 5 -21 91 53 78 69 97 80 97 5 0 7 -42 6
-92z"/>
<path d="M5412 3021 c-7 -4 -17 -23 -22 -42 -5 -19 -24 -83 -43 -144 -19 -60
-36 -114 -37 -120 -7 -29 2 -35 51 -35 163 0 286 -108 249 -220 -9 -29 -22
-43 -47 -55 -34 -16 -36 -16 -98 14 -85 42 -120 48 -145 26 -29 -27 -24 -51
16 -82 49 -36 140 -44 215 -17 118 43 192 196 148 308 -32 83 -98 133 -222
170 -76 24 -87 34 -62 60 13 13 38 16 125 16 121 0 124 2 151 79 9 27 9 35 -2
42 -18 11 -260 11 -277 0z"/>
<path d="M3760 2989 c-36 -17 -82 -39 -102 -48 -52 -22 -49 -41 6 -41 31 0 46
-5 50 -16 3 -9 6 -132 6 -274 0 -255 0 -259 21 -271 20 -10 125 -9 132 2 1 2
0 155 -3 339 -6 387 3 362 -110 309z"/>
<path d="M4783 2991 c-45 -33 -83 -87 -83 -120 0 -29 13 -26 48 8 16 17 41 33
56 37 61 15 126 -46 126 -116 -2 -93 -69 -236 -182 -386 -21 -28 -38 -56 -38
-63 0 -8 47 -11 182 -9 l183 3 8 30 c5 17 15 51 23 77 8 25 11 53 8 62 -5 13
-12 11 -42 -12 -31 -24 -46 -27 -124 -30 -103 -5 -111 4 -53 67 40 43 109 144
145 211 31 61 34 163 5 202 -34 46 -85 68 -157 68 -56 0 -71 -4 -105 -29z"/>
<path d="M6470 3001 c-61 -25 -111 -78 -134 -140 -10 -28 -29 -60 -43 -71 -36
-28 -26 -53 27 -67 67 -18 124 -40 161 -62 19 -12 43 -25 55 -30 36 -16 134
-112 160 -157 29 -50 54 -58 54 -17 0 20 15 41 54 77 65 61 76 82 76 138 -1
115 -99 258 -218 314 -73 35 -134 40 -192 15z m129 -101 c65 -35 115 -78 165
-140 29 -37 36 -54 36 -90 0 -58 -12 -70 -70 -70 -36 0 -63 10 -125 45 -87 50
-122 80 -166 139 -38 52 -37 77 6 115 46 40 81 40 154 1z"/>
<path d="M2799 2961 c-42 -14 -80 -43 -110 -85 -45 -62 -41 -120 17 -220 36
-65 44 -88 42 -120 -4 -55 -38 -75 -94 -58 -76 23 -111 127 -69 206 21 39 14
72 -13 61 -9 -4 -30 -12 -47 -18 -113 -38 -129 -58 -77 -96 15 -11 37 -37 48
-58 67 -133 150 -191 234 -163 61 20 107 72 115 128 7 53 -2 96 -39 196 -32
85 -33 116 -3 144 46 43 96 23 136 -55 25 -50 27 -110 5 -157 -9 -19 -14 -41
-11 -50 5 -13 18 -10 79 22 40 22 74 46 76 55 2 9 -8 27 -22 39 -14 13 -45 61
-69 107 -23 46 -53 92 -67 102 -30 22 -94 32 -131 20z"/>
<path d="M6202 2693 c-3 -10 -6 -44 -7 -75 0 -51 5 -64 41 -115 54 -78 57 -88
35 -131 -42 -82 -104 -77 -173 15 -42 55 -64 65 -75 36 -4 -9 -21 -39 -40 -67
-18 -28 -33 -56 -33 -62 0 -15 23 -24 65 -24 42 0 133 -40 210 -92 64 -43 109
-96 139 -165 30 -69 39 -61 93 80 20 52 77 118 123 142 19 10 30 23 30 36 0
20 -4 21 -63 15 l-64 -7 -28 63 c-33 75 -100 177 -154 235 -22 24 -47 63 -56
88 -19 48 -31 56 -43 28z m203 -385 c27 -32 35 -50 33 -73 -3 -29 -4 -30 -52
-27 -52 2 -96 30 -96 60 0 26 41 82 60 82 10 0 35 -19 55 -42z"/>
<path d="M3106 2590 c-21 -22 -70 -65 -110 -94 -166 -126 -216 -190 -216 -281
0 -63 9 -78 104 -170 46 -44 92 -93 102 -108 l20 -29 39 64 c21 34 70 96 109
137 68 70 176 161 193 161 4 1 21 11 36 23 l28 23 -35 46 c-19 25 -42 48 -51
52 -19 7 -35 0 -35 -15 0 -20 -90 -128 -162 -194 -118 -108 -171 -126 -227
-79 -26 22 -31 33 -31 70 0 55 23 81 145 167 112 78 155 132 155 192 0 46 -7
75 -19 75 -4 0 -24 -18 -45 -40z"/>
<path d="M3426 2229 c-9 -13 -16 -31 -16 -40 0 -9 -7 -22 -15 -29 -8 -7 -15
-17 -15 -22 0 -13 -52 -81 -104 -136 -42 -45 -130 -109 -178 -130 -16 -6 -28
-17 -28 -23 0 -7 21 -35 48 -64 26 -28 63 -72 82 -96 56 -74 75 -84 155 -83
87 0 138 25 211 100 67 68 106 150 112 231 5 78 -15 114 -98 178 -32 25 -76
66 -98 91 l-39 46 -17 -23z m123 -170 c36 -34 43 -64 24 -112 -20 -53 -50 -87
-77 -87 -30 0 -96 57 -112 96 -16 37 -10 62 20 84 59 43 111 50 145 19z m-189
-175 c22 -20 49 -52 61 -71 l21 -34 -21 -23 c-12 -13 -48 -32 -78 -41 -50 -16
-60 -16 -82 -4 -41 23 -51 53 -35 105 17 58 50 104 75 104 10 0 37 -16 59 -36z"/>
<path d="M5815 2165 c-31 -30 -32 -66 -1 -101 21 -26 25 -27 53 -15 29 12 53
46 53 75 0 19 -46 66 -65 66 -9 0 -27 -11 -40 -25z"/>
<path d="M5987 2033 c-9 -2 -24 -18 -32 -34 -14 -26 -14 -32 -1 -58 26 -49 90
-49 116 -1 16 30 12 55 -13 78 -23 22 -35 24 -70 15z"/>
<path d="M5629 1978 c-68 -89 -149 -176 -189 -203 -22 -15 -39 -33 -37 -38 2
-6 17 -18 35 -27 17 -10 56 -36 85 -59 30 -22 59 -41 65 -41 15 0 15 45 0 73
-19 36 -27 88 -17 113 6 18 16 24 39 24 25 0 46 -16 115 -85 70 -70 167 -189
210 -258 11 -18 20 -13 83 55 l33 35 -46 27 c-62 37 -222 197 -273 275 -27 40
-45 80 -49 107 -3 24 -9 44 -14 44 -4 0 -22 -19 -40 -42z"/>
<path d="M3791 1884 c-12 -15 -21 -33 -21 -40 0 -7 -22 -51 -50 -98 -51 -87
-168 -215 -240 -262 -36 -24 -53 -54 -31 -54 5 0 35 -27 67 -60 33 -33 62 -60
67 -60 4 0 7 11 7 25 0 65 61 159 216 335 49 56 85 88 104 93 26 7 28 10 18
27 -7 10 -22 24 -35 31 -12 7 -34 29 -49 51 -15 21 -28 38 -30 38 -1 0 -12
-12 -23 -26z"/>
<path d="M6122 1854 c-30 -21 -30 -73 1 -102 30 -28 58 -28 85 1 28 30 28 68
-1 95 -27 26 -54 28 -85 6z"/>
<path d="M3943 1682 c-12 -26 -54 -87 -94 -137 -39 -49 -88 -115 -108 -145
-33 -50 -36 -61 -36 -127 0 -72 0 -72 44 -117 24 -25 72 -59 107 -76 35 -17
80 -47 101 -66 41 -39 53 -33 53 24 0 84 187 355 268 389 40 17 37 32 -10 55
-20 9 -49 34 -66 54 -32 38 -52 38 -52 0 0 -61 -88 -218 -177 -315 -47 -52
-60 -61 -89 -61 -41 0 -88 32 -104 69 -16 41 16 101 111 206 100 111 123 153
116 213 -3 24 -13 53 -24 63 -18 18 -19 18 -40 -29z"/>
<path d="M5285 1612 c-93 -33 -165 -127 -165 -214 0 -179 212 -377 363 -338
58 16 111 53 147 102 26 36 30 49 30 108 0 116 -74 235 -192 311 -49 32 -139
47 -183 31z m93 -98 c119 -59 226 -229 201 -319 -18 -66 -84 -83 -162 -44 -53
28 -157 132 -185 187 -25 48 -30 138 -9 164 35 44 83 48 155 12z"/>
<path d="M4310 1343 c1 -16 7 -39 15 -53 10 -18 14 -62 15 -161 0 -132 -1
-137 -31 -198 -23 -45 -41 -67 -70 -84 -21 -12 -39 -27 -39 -33 0 -18 77 -36
125 -29 53 8 102 -6 162 -48 31 -23 46 -28 54 -20 8 8 7 17 -5 34 -24 35 -20
57 19 100 39 43 56 76 110 204 21 50 58 114 82 144 52 65 47 80 -22 61 -49
-14 -91 -57 -129 -133 -31 -60 -40 -64 -104 -41 -54 18 -57 21 -60 56 -2 27 6
54 33 103 39 71 40 95 2 95 -14 0 -41 7 -60 15 -20 8 -50 15 -67 15 -26 0 -30
-3 -30 -27z m181 -320 c38 -23 37 -51 -3 -114 -27 -40 -38 -49 -58 -47 -23 3
-25 8 -28 58 -2 41 3 63 18 88 23 37 31 39 71 15z"/>
<path d="M4864 1273 c4 -38 12 -104 17 -148 26 -230 23 -296 -18 -379 -23 -45
-4 -50 68 -21 35 15 73 33 83 41 19 13 19 15 -7 67 -18 36 -31 91 -43 174 -24
173 -13 188 76 101 46 -46 143 -169 176 -224 10 -15 14 -17 25 -6 7 6 21 12
30 12 16 0 89 37 89 45 0 2 -35 32 -77 68 -91 75 -101 84 -213 186 -155 141
-167 151 -190 151 -22 0 -23 -2 -16 -67z"/>
</g>
</svg>
