<?xml version="1.0" encoding="utf-8"?>
<!-- Generator: Adobe Illustrator 24.2.3, SVG Export Plug-In . SVG Version: 6.00 Build 0)  -->
<svg version="1.1" id="Layer_1" xmlns="http://www.w3.org/2000/svg" xmlns:xlink="http://www.w3.org/1999/xlink" x="0px" y="0px"
	 viewBox="0 0 894 112.7" style="enable-background:new 0 0 894 112.7;" xml:space="preserve">
<g>
	<polygon points="8.3,28.3 31.2,28.3 31.2,93.2 40,93.2 40,28.3 62.8,28.3 62.8,20.5 8.3,20.5 	"/>
	<path d="M92.5,37.8c-3.3,0-6.2,0.8-8.8,2.5c-2.6,1.7-4.4,3.9-5.4,6.6h-0.6v-8.2h-8.1v54.5H78V58.7c0-2.5,0.6-4.7,1.8-6.6
		c1.2-1.9,2.8-3.4,4.9-4.5c2.1-1.1,4.4-1.7,7.1-1.7c1.1,0,2.2,0.1,3.2,0.2c1,0.2,1.7,0.3,1.9,0.3V38c-0.5,0-1.2-0.1-2.1-0.1
		C93.9,37.8,93.1,37.8,92.5,37.8z"/>
	<rect x="106.9" y="38.7" width="8.4" height="54.5"/>
	<path d="M111.1,18.2c-1.6,0-3,0.6-4.2,1.7c-1.2,1.1-1.8,2.5-1.8,4s0.6,2.9,1.8,4c1.2,1.1,2.6,1.7,4.2,1.7c1.6,0,3-0.6,4.2-1.7
		c1.2-1.1,1.8-2.5,1.8-4s-0.6-2.9-1.8-4C114.2,18.8,112.8,18.2,111.1,18.2z"/>
	<path d="M155.7,63.2l-8.1-2c-3.2-0.8-5.6-1.8-7.1-3c-1.5-1.2-2.3-2.9-2.3-4.9c0-2.3,1.1-4.3,3.3-5.8c2.2-1.5,5-2.3,8.3-2.3
		c2.4,0,4.4,0.4,6,1.2s2.8,1.8,3.7,3c0.9,1.2,1.6,2.4,2.1,3.7l7.5-2.1c-1.3-3.9-3.5-7-6.6-9.4c-3.1-2.4-7.3-3.6-12.7-3.6
		c-3.8,0-7.3,0.7-10.3,2s-5.4,3.2-7.1,5.6s-2.6,5.1-2.6,8.2c0,3.8,1.2,6.9,3.5,9.4c2.3,2.5,6,4.3,11,5.5l9.1,2.1
		c2.7,0.6,4.8,1.6,6.1,2.9c1.3,1.3,2,2.9,2,4.8c0,2.3-1.2,4.3-3.5,6c-2.3,1.7-5.4,2.5-9.3,2.5c-3.4,0-6.2-0.7-8.3-2.2
		c-2.1-1.5-3.6-3.7-4.3-6.6l-8,2c1,4.6,3.3,8.2,6.9,10.6c3.6,2.4,8.3,3.6,13.8,3.6c4.2,0,8-0.7,11.2-2.1c3.2-1.4,5.7-3.4,7.5-5.8
		c1.8-2.5,2.7-5.3,2.7-8.4c0-3.8-1.2-6.9-3.6-9.4S160.6,64.4,155.7,63.2z"/>
	<path d="M204.5,85.7c-0.6,0.1-1.3,0.2-2.3,0.2c-1.2,0-2.4-0.2-3.5-0.6c-1.1-0.4-2-1.2-2.7-2.3c-0.7-1.2-1-2.9-1-5.3V45.8h11.6v-7.1
		h-11.6V25.6h-8.4v13.1h-8.2v7.1h8.2v34.1c0,3.2,0.7,5.8,2.2,7.9c1.5,2.1,3.3,3.6,5.6,4.7c2.3,1,4.6,1.5,6.9,1.5
		c1.6,0,2.9-0.1,3.9-0.3c1-0.2,1.8-0.4,2.4-0.7l-1.7-7.5C205.5,85.5,205.1,85.6,204.5,85.7z"/>
	<path d="M252.8,41.1c-2.1-1.3-4.4-2.1-6.6-2.5c-2.3-0.4-4.3-0.6-6.1-0.6c-2.7,0-5.5,0.4-8.4,1.1c-2.8,0.7-5.4,2-7.8,3.9
		c-2.4,1.9-4.3,4.4-5.7,7.8l8,2.8c0.9-2,2.5-3.9,4.8-5.6c2.3-1.8,5.4-2.6,9.4-2.6c3.9,0,6.7,1,8.6,2.9c1.9,1.9,2.9,4.7,2.9,8.2v0.3
		c0,1.3-0.5,2.3-1.4,2.8c-1,0.5-2.5,0.9-4.5,1.2c-2.1,0.2-4.8,0.6-8.1,1c-2.5,0.3-5,0.8-7.5,1.3c-2.5,0.6-4.8,1.4-6.8,2.5
		c-2.1,1.1-3.7,2.6-4.9,4.6c-1.2,2-1.8,4.5-1.8,7.6c0,3.6,0.8,6.6,2.5,9.1c1.7,2.5,3.9,4.4,6.7,5.7c2.8,1.3,6,2,9.4,2
		c3.2,0,5.9-0.5,8.1-1.4c2.2-0.9,4-2.1,5.3-3.4c1.3-1.3,2.3-2.6,2.8-3.8h0.4v7.4h8.4V57.3c0-4.3-0.7-7.8-2.1-10.4
		S255,42.4,252.8,41.1z M251.9,73.5c0,2.3-0.6,4.4-1.8,6.5s-2.9,3.7-5.2,5c-2.3,1.3-5.1,2-8.4,2c-3.3,0-6.1-0.7-8.3-2.2
		c-2.2-1.5-3.2-3.7-3.2-6.6c0-2.1,0.6-3.8,1.7-5.1c1.1-1.2,2.7-2.2,4.5-2.8c1.9-0.6,3.9-1.1,6.1-1.4c0.9-0.1,2.1-0.3,3.5-0.4
		s3-0.4,4.5-0.6c1.6-0.2,2.9-0.5,4.1-0.9c1.2-0.3,2-0.7,2.3-1.2V73.5z"/>
	<path d="M310,40.2c-2.8-1.5-6-2.3-9.7-2.3c-4.1,0-7.5,0.8-10.1,2.5c-2.6,1.7-4.5,3.9-5.8,6.7h-0.7v-8.5h-8.1v54.5h8.4V60.4
		c0-3.2,0.6-5.9,1.8-8.1c1.2-2.2,2.9-3.9,5-5.1c2.1-1.2,4.5-1.7,7.2-1.7c3.9,0,6.9,1.2,9.2,3.6c2.2,2.4,3.3,5.7,3.3,10v34.1h8.4
		V58.6c0-4.6-0.8-8.5-2.3-11.5C315,44,312.8,41.7,310,40.2z"/>
	<polygon points="388.8,81.7 388,81.7 366.4,20.5 357.2,20.5 383.9,93.2 393,93.2 419.7,20.5 410.4,20.5 	"/>
	<path d="M458.3,41.1c-2.1-1.3-4.4-2.1-6.6-2.5c-2.3-0.4-4.3-0.6-6.1-0.6c-2.7,0-5.5,0.4-8.4,1.1c-2.8,0.7-5.4,2-7.8,3.9
		c-2.4,1.9-4.3,4.4-5.7,7.8l8,2.8c0.9-2,2.5-3.9,4.8-5.6c2.3-1.8,5.4-2.6,9.4-2.6c3.9,0,6.7,1,8.6,2.9c1.9,1.9,2.9,4.7,2.9,8.2v0.3
		c0,1.3-0.5,2.3-1.4,2.8c-1,0.5-2.5,0.9-4.5,1.2c-2.1,0.2-4.8,0.6-8.1,1c-2.5,0.3-5,0.8-7.5,1.3c-2.5,0.6-4.8,1.4-6.8,2.5
		c-2.1,1.1-3.7,2.6-4.9,4.6c-1.2,2-1.8,4.5-1.8,7.6c0,3.6,0.8,6.6,2.5,9.1c1.7,2.5,3.9,4.4,6.7,5.7c2.8,1.3,6,2,9.4,2
		c3.2,0,5.9-0.5,8.1-1.4c2.2-0.9,4-2.1,5.3-3.4c1.3-1.3,2.3-2.6,2.8-3.8h0.4v7.4h8.4V57.3c0-4.3-0.7-7.8-2.1-10.4
		C462.3,44.3,460.5,42.4,458.3,41.1z M457.4,73.5c0,2.3-0.6,4.4-1.8,6.5s-2.9,3.7-5.2,5c-2.3,1.3-5.1,2-8.4,2
		c-3.3,0-6.1-0.7-8.3-2.2c-2.2-1.5-3.2-3.7-3.2-6.6c0-2.1,0.6-3.8,1.7-5.1c1.1-1.2,2.7-2.2,4.5-2.8c1.9-0.6,3.9-1.1,6.1-1.4
		c0.9-0.1,2.1-0.3,3.5-0.4s3-0.4,4.5-0.6c1.6-0.2,2.9-0.5,4.1-0.9c1.2-0.3,2-0.7,2.3-1.2V73.5z"/>
	<path d="M515.6,40.2c-2.8-1.5-6-2.3-9.7-2.3c-4.1,0-7.5,0.8-10.1,2.5c-2.6,1.7-4.5,3.9-5.8,6.7h-0.7v-8.5h-8.1v54.5h8.4V60.4
		c0-3.2,0.6-5.9,1.8-8.1c1.2-2.2,2.9-3.9,5-5.1c2.1-1.2,4.5-1.7,7.2-1.7c3.9,0,6.9,1.2,9.2,3.6c2.2,2.4,3.3,5.7,3.3,10v34.1h8.4
		V58.6c0-4.6-0.8-8.5-2.3-11.5S518.3,41.7,515.6,40.2z"/>
	<path d="M600.5,64.7h19.2c-0.1,4.2-1,7.9-2.7,11c-1.8,3.3-4.3,5.8-7.5,7.6c-3.2,1.8-6.9,2.7-11,2.7c-4.5,0-8.5-1.1-12.1-3.3
		s-6.5-5.5-8.6-9.8c-2.1-4.3-3.2-9.6-3.2-15.9c0-6.3,1-11.6,3.1-15.9c2.1-4.3,4.9-7.6,8.4-9.8c3.5-2.2,7.4-3.3,11.8-3.3
		c2.6,0,5,0.4,7.2,1.1c2.2,0.7,4.2,1.7,5.9,3.1c1.7,1.3,3.2,3,4.5,4.9c1.3,1.9,2.3,4.1,3.1,6.4h9.1c-0.7-3.5-1.9-6.7-3.6-9.6
		c-1.8-2.9-3.9-5.4-6.6-7.5c-2.6-2.1-5.6-3.7-8.9-4.9s-6.9-1.7-10.7-1.7c-4.7,0-8.9,0.9-12.8,2.6c-3.9,1.7-7.2,4.2-10.1,7.5
		c-2.8,3.2-5,7.2-6.6,11.8s-2.3,9.8-2.3,15.5c0,7.7,1.4,14.3,4.1,19.9c2.7,5.6,6.5,9.9,11.4,12.9s10.5,4.5,17,4.5
		c5.8,0,10.9-1.2,15.4-3.6c4.5-2.4,8-5.9,10.5-10.3c2.5-4.4,3.8-9.6,3.8-15.6v-7.8h-27.7V64.7z"/>
	<path d="M675.7,41.1c-2.1-1.3-4.4-2.1-6.6-2.5c-2.3-0.4-4.3-0.6-6.1-0.6c-2.7,0-5.5,0.4-8.4,1.1c-2.8,0.7-5.4,2-7.8,3.9
		c-2.4,1.9-4.3,4.4-5.7,7.8l8,2.8c0.9-2,2.5-3.9,4.8-5.6s5.4-2.6,9.4-2.6c3.9,0,6.7,1,8.6,2.9c1.9,1.9,2.9,4.7,2.9,8.2v0.3
		c0,1.3-0.5,2.3-1.4,2.8c-1,0.5-2.5,0.9-4.5,1.2c-2.1,0.2-4.8,0.6-8.1,1c-2.5,0.3-5,0.8-7.5,1.3c-2.5,0.6-4.8,1.4-6.8,2.5
		c-2.1,1.1-3.7,2.6-4.9,4.6s-1.8,4.5-1.8,7.6c0,3.6,0.8,6.6,2.5,9.1c1.7,2.5,3.9,4.4,6.7,5.7c2.8,1.3,6,2,9.4,2
		c3.2,0,5.9-0.5,8.1-1.4c2.2-0.9,4-2.1,5.3-3.4c1.3-1.3,2.3-2.6,2.8-3.8h0.4v7.4h8.4V57.3c0-4.3-0.7-7.8-2.1-10.4
		C679.6,44.3,677.8,42.4,675.7,41.1z M674.8,73.5c0,2.3-0.6,4.4-1.8,6.5s-2.9,3.7-5.2,5c-2.3,1.3-5.1,2-8.4,2
		c-3.3,0-6.1-0.7-8.3-2.2c-2.2-1.5-3.2-3.7-3.2-6.6c0-2.1,0.6-3.8,1.7-5.1c1.1-1.2,2.7-2.2,4.5-2.8c1.9-0.6,3.9-1.1,6.1-1.4
		c0.9-0.1,2.1-0.3,3.5-0.4s3-0.4,4.5-0.6c1.6-0.2,2.9-0.5,4.1-0.9c1.2-0.3,2-0.7,2.3-1.2V73.5z"/>
	<path d="M721.4,37.8c-3.3,0-6.2,0.8-8.8,2.5c-2.6,1.7-4.4,3.9-5.4,6.6h-0.6v-8.2h-8.1v54.5h8.4V58.7c0-2.5,0.6-4.7,1.8-6.6
		c1.2-1.9,2.8-3.4,4.9-4.5c2.1-1.1,4.4-1.7,7.1-1.7c1.1,0,2.2,0.1,3.2,0.2c1,0.2,1.7,0.3,1.9,0.3V38c-0.5,0-1.2-0.1-2.1-0.1
		C722.7,37.8,722,37.8,721.4,37.8z"/>
	<path d="M760.8,63.2l-8.1-2c-3.2-0.8-5.6-1.8-7.1-3c-1.5-1.2-2.3-2.9-2.3-4.9c0-2.3,1.1-4.3,3.3-5.8c2.2-1.5,5-2.3,8.3-2.3
		c2.4,0,4.4,0.4,6,1.2s2.8,1.8,3.7,3c0.9,1.2,1.6,2.4,2.1,3.7l7.5-2.1c-1.3-3.9-3.5-7-6.6-9.4c-3.1-2.4-7.3-3.6-12.7-3.6
		c-3.8,0-7.3,0.7-10.3,2s-5.4,3.2-7.1,5.6s-2.6,5.1-2.6,8.2c0,3.8,1.2,6.9,3.5,9.4s6,4.3,11,5.5l9.1,2.1c2.7,0.6,4.8,1.6,6.1,2.9
		s2,2.9,2,4.8c0,2.3-1.2,4.3-3.5,6c-2.3,1.7-5.4,2.5-9.3,2.5c-3.4,0-6.2-0.7-8.3-2.2c-2.1-1.5-3.6-3.7-4.3-6.6l-8,2
		c1,4.6,3.3,8.2,6.9,10.6c3.6,2.4,8.2,3.6,13.8,3.6c4.2,0,8-0.7,11.2-2.1c3.2-1.4,5.7-3.4,7.5-5.8c1.8-2.5,2.7-5.3,2.7-8.4
		c0-3.8-1.2-6.9-3.6-9.4C769.4,66.2,765.7,64.4,760.8,63.2z"/>
	<path d="M813.1,63.2l-8.1-2c-3.2-0.8-5.6-1.8-7.1-3c-1.5-1.2-2.3-2.9-2.3-4.9c0-2.3,1.1-4.3,3.3-5.8c2.2-1.5,5-2.3,8.3-2.3
		c2.4,0,4.4,0.4,6,1.2s2.8,1.8,3.7,3c0.9,1.2,1.6,2.4,2.1,3.7l7.5-2.1c-1.3-3.9-3.5-7-6.6-9.4c-3.1-2.4-7.3-3.6-12.7-3.6
		c-3.8,0-7.3,0.7-10.3,2s-5.4,3.2-7.1,5.6s-2.6,5.1-2.6,8.2c0,3.8,1.2,6.9,3.5,9.4s6,4.3,11,5.5l9.1,2.1c2.7,0.6,4.8,1.6,6.1,2.9
		s2,2.9,2,4.8c0,2.3-1.2,4.3-3.5,6c-2.3,1.7-5.4,2.5-9.3,2.5c-3.4,0-6.2-0.7-8.3-2.2c-2.1-1.5-3.6-3.7-4.3-6.6l-8,2
		c1,4.6,3.3,8.2,6.9,10.6c3.6,2.4,8.2,3.6,13.8,3.6c4.2,0,8-0.7,11.2-2.1c3.2-1.4,5.7-3.4,7.5-5.8c1.8-2.5,2.7-5.3,2.7-8.4
		c0-3.8-1.2-6.9-3.6-9.4C821.6,66.2,818,64.4,813.1,63.2z"/>
	<path d="M885.7,65.2c0-5.1-0.7-9.4-2-12.9c-1.3-3.5-3.2-6.3-5.4-8.4c-2.3-2.1-4.8-3.7-7.6-4.6c-2.8-0.9-5.6-1.4-8.4-1.4
		c-4.9,0-9.2,1.2-12.9,3.6c-3.7,2.4-6.5,5.7-8.6,10c-2,4.3-3.1,9.2-3.1,14.8c0,5.6,1,10.5,3.1,14.7c2,4.2,5,7.5,8.8,9.8
		s8.3,3.5,13.6,3.5c3.7,0,7-0.6,10-1.7c3-1.1,5.4-2.8,7.5-4.8s3.4-4.5,4.3-7.2l-8.1-2.3c-0.7,1.9-1.7,3.5-3,4.7s-2.8,2.2-4.6,2.8
		c-1.8,0.6-3.8,0.9-6,0.9c-3.4,0-6.4-0.7-8.9-2.2c-2.6-1.5-4.6-3.6-6-6.5c-1.3-2.6-2-5.7-2.1-9.3h39.6V65.2z M846.1,61.5
		c0.2-2.5,0.8-4.9,1.9-7.2c1.3-2.6,3.2-4.8,5.6-6.4s5.3-2.5,8.6-2.5c3,0,5.7,0.7,7.9,2.1s4,3.3,5.2,5.7c1.2,2.4,1.8,5.2,1.8,8.2
		H846.1z"/>
</g>
</svg>
